<?xml version="1.0" standalone="no"?>
<!DOCTYPE svg PUBLIC "-//W3C//DTD SVG 1.1//EN" "http://www.w3.org/Graphics/SVG/1.1/DTD/svg11.dtd" >
<svg>
<metadata>
Created by FontForge 20110222 at Sat Nov 19 16:58:50 2011
 By www-data
Linux Libertine by Philipp H. Poll,
Open Font under Terms of following Free Software Licenses:
GPL (General Public License) with font-exception and OFL (Open Font License).
Created with FontForge (http://fontforge.sf.net)
Sept 2003, 2004, 2005, 2006, 2007, 2008, 2009, 2010, 2011
</metadata>
<defs>
<font id="LinBiolinumCapitals" horiz-adv-x="1024" >
  <font-face 
    font-family="Linux Biolinum Capitals"
    font-weight="400"
    font-variant="small-caps"
    font-stretch="normal"
    units-per-em="2048"
    panose-1="2 0 5 3 0 0 0 0 0 0"
    ascent="1638"
    descent="-410"
    x-height="948"
    cap-height="1327"
    bbox="-721 -481 1911 1710.04"
    underline-thickness="81"
    underline-position="-201"
    unicode-range="U+0020-2122"
  />
    <missing-glyph />
    <glyph glyph-name="ellipsis" unicode="&#x2e;&#x2e;&#x2e;" horiz-adv-x="1533" 
d="M111 90v8q27 76 110 111h8q84 -31 111 -111v-8q-29 -90 -111 -110h-8q-49 10 -72.5 34.5t-37.5 75.5zM653 90v8q27 76 111 111h8q84 -31 111 -111v-8q-29 -90 -111 -110h-8q-49 10 -73 34.5t-38 75.5zM1194 90v8q27 76 111 111h8q84 -31 110 -111v-8q-29 -90 -110 -110
h-8q-49 10 -73 34.5t-38 75.5z" />
    <glyph glyph-name="space" unicode=" " horiz-adv-x="512" 
 />
    <glyph glyph-name="exclam" unicode="!" horiz-adv-x="466" 
d="M231 1348q45 0 80 -39t35 -111q0 -76 -22.5 -205t-30.5 -190q-12 -96 -19.5 -183.5t-9.5 -134.5t-4 -55q-4 -41 -28.5 -41t-28.5 27l-10 145q-10 145 -21 242q-8 72 -29.5 193.5t-21.5 201.5q0 76 34.5 113t75.5 37zM117 90v8q27 76 110 111h9q84 -31 110 -111v-8
q-29 -90 -110 -110h-9q-49 10 -72.5 34.5t-37.5 75.5z" />
    <glyph glyph-name="quotedbl" unicode="&#x22;" horiz-adv-x="688" 
d="M440 874q-53 326 -53 345q0 37 31 69.5t74 32.5q72 0 71 -68l-67 -370zM182 872q-53 326 -53 345q0 37 30.5 69.5t73.5 32.5q72 0 72 -68l-67 -370z" />
    <glyph glyph-name="numbersign" unicode="#" horiz-adv-x="962" 
d="M584 506l37 239h-240l-39 -239h242zM694 745l-41 -239h199l-16 -107h-195l-61 -370h-72l57 370h-239l-62 -370h-71l59 370h-197l15 107h198l39 239h-198l18 109h197l59 371h74l-62 -371h244l57 371h72l-59 -371h198l-16 -109h-197z" />
    <glyph glyph-name="dollar" unicode="$" horiz-adv-x="952" 
d="M438 748l24 423h-3q-92 0 -147.5 -56t-55.5 -144q0 -56 30 -102.5t66.5 -72t85.5 -48.5zM502 541l-26 -476q96 8 161 65t65 157q0 57 -15 99.5t-46 71t-61.5 46.5t-77.5 37zM471 -19l-9 -172q-18 -10 -76 -10l10 181q-93 4 -169.5 26.5t-107.5 40.5t-31 21l-4 6
q31 127 39 186l18 2q10 -22 23.5 -42.5t29.5 -38.5t33.5 -34t37.5 -29t42 -23t45.5 -17.5t48.5 -10.5l27 503q-67 28 -116 57t-97 71t-73 98.5t-25 125.5q0 57 20.5 108.5t55 90t79.5 67t95 44t99 17.5l9 163q27 10 76 10l-10 -175q81 -6 142.5 -27t81.5 -39l21 -18l5 -6
q-29 -88 -37 -180l-21 -2q-33 73 -81.5 121t-115.5 66l-24 -444q46 -17 82 -32t79.5 -38.5t75 -51.5t59 -63t42 -80.5t14.5 -98.5q0 -166 -123 -270q-52 -44 -123 -70.5t-147 -32.5z" />
    <glyph glyph-name="percent" unicode="%" horiz-adv-x="1392" 
d="M946 182q0 -78 30 -111.5t68 -33.5q84 0 141.5 108.5t57.5 212.5q0 76 -31.5 105t-66.5 29q-76 0 -137.5 -104t-61.5 -206zM831 215q0 127 86.5 235.5t202.5 108.5q80 0 134.5 -45t54.5 -154q0 -131 -77 -259t-202 -128q-94 0 -146.5 73t-52.5 169zM797 1141
q90 0 186 27.5t141 88.5l70 -34l-897 -1250l-74 33l785 1094q-104 -41 -234 -41q-98 0 -174 45q6 -23 6 -53q0 -125 -77.5 -256t-202.5 -131q-94 0 -145.5 72.5t-51.5 164.5q0 129 86 238.5t201 109.5q43 0 86 -17.5t61 -37.5q115 -53 234 -53zM242 870q0 -78 30.5 -110.5
t67.5 -32.5q84 0 141.5 106.5t57.5 215.5q0 74 -30 103.5t-69 29.5q-76 0 -137 -105t-61 -207z" />
    <glyph glyph-name="ampersand" unicode="&#x26;" horiz-adv-x="1239" 
d="M868 659q-33 0 -32 29q0 20 17 40t40 20h289q33 0 32 -27q0 -23 -17 -42.5t-40 -19.5h-129q-23 -365 -164 -524.5t-360 -159.5q-190 0 -304 97.5t-114 263.5q0 104 64.5 203.5t154.5 169.5q-61 80 -61 170q0 111 99 203t267 92q47 0 114 -22t87 -22q0 -82 27 -233
l-56 -10q-23 86 -83 146.5t-148 60.5q-100 0 -147.5 -61.5t-47.5 -123.5q0 -162 113 -161h193q33 0 32 -27q0 -23 -17.5 -42.5t-39.5 -19.5h-219q-72 0 -130.5 -73.5t-58.5 -155.5q0 -45 6.5 -86t27 -90t53 -85t91 -59.5t134.5 -23.5q96 0 177 55.5t129 136t73.5 161.5
t25.5 141q0 37 -21.5 58t-56.5 21z" />
    <glyph glyph-name="quotesingle" unicode="'" horiz-adv-x="389" 
d="M162 872q-53 326 -53 345q0 37 30.5 69.5t73.5 32.5q72 0 72 -68l-68 -370z" />
    <glyph glyph-name="parenleft" unicode="(" horiz-adv-x="614" 
d="M90 665q0 159 58.5 312.5t154.5 275t221 213.5l47 -31q-311 -302 -311 -770q0 -465 311 -773l-47 -30q-354 264 -421 659q-13 74 -13 144z" />
    <glyph glyph-name="parenright" unicode=")" horiz-adv-x="614" 
d="M524 665q0 -236 -120.5 -447.5t-313.5 -353.5l-47 31q311 302 311 770q0 465 -311 773l47 30q101 -75 179.5 -162t123 -171t74 -156t40.5 -142.5t14 -104.5t3 -67z" />
    <glyph glyph-name="asterisk" unicode="*" horiz-adv-x="886" 
d="M406 1161q-35 8 -87 8q-166 0 -165 76q0 25 16 43.5t51 18.5q39 0 99.5 -45t97.5 -60q-4 41 -25.5 101.5t-21.5 87.5q0 33 17.5 56t43.5 23q68 0 68 -71q0 -29 -18.5 -99.5t-20.5 -99.5q39 16 98 61.5t96 45.5t53.5 -20.5t16.5 -41.5q0 -76 -141 -76q-63 0 -113 -8
q25 -27 72 -58.5t72.5 -57t25.5 -62.5q0 -27 -18.5 -43t-40.5 -16q-35 0 -58.5 32.5t-47 93t-40.5 87.5q-14 -27 -38.5 -90.5t-47 -93t-57.5 -29.5q-27 0 -43.5 17t-16.5 40q0 39 27 65.5t74 56t72 58.5z" />
    <glyph glyph-name="plus" unicode="+" horiz-adv-x="1079" 
d="M592 526h352v-100h-352v-356h-105v356h-352v100h352v357h105v-357z" />
    <glyph glyph-name="comma" unicode="," horiz-adv-x="450" 
d="M98 90v8q27 76 111 111h8q131 -47 131 -215q0 -59 -15.5 -104.5t-52 -81t-62 -52t-83.5 -51.5q-27 23 -26 43q160 109 159 193q0 53 -59 53q-51 12 -75 29.5t-36 66.5z" />
    <glyph glyph-name="hyphen" unicode="-" horiz-adv-x="681" 
d="M561 444h-463q-31 0 -30 35q0 25 16 50.5t35 25.5h469q29 0 28 -37q0 -18 -18.5 -46t-36.5 -28z" />
    <glyph glyph-name="period" unicode="." horiz-adv-x="450" 
d="M111 90v8q27 76 110 111h8q84 -31 111 -111v-8q-29 -90 -111 -110h-8q-49 10 -72.5 34.5t-37.5 75.5z" />
    <glyph glyph-name="slash" unicode="/" horiz-adv-x="661" 
d="M600 1323l-485 -1444h-84l485 1444h84z" />
    <glyph glyph-name="zero" unicode="0" horiz-adv-x="952" 
d="M477 1169q-221 0 -221 -581q0 -63 3 -124t16.5 -138.5t36 -133t62.5 -94.5t95 -39q27 0 54.5 10.5t67.5 56.5t60 124q35 127 35 399q0 195 -34 320t-85 168q-37 32 -90 32zM467 -20q-182 0 -284.5 175t-102.5 437q0 291 118.5 474t278.5 183q117 0 195 -71
q190 -174 190 -545q0 -170 -39 -302t-100 -206t-127 -109.5t-129 -35.5z" />
    <glyph glyph-name="one" unicode="1" horiz-adv-x="952" 
d="M668 387q0 -229 18 -387l-4 -6q-57 6 -98 6l-95 -6l-2 6q16 133 17 387v508q0 156 -37 156q-23 0 -107 -14.5t-127 -18.5l-12 59q86 27 237.5 90.5t211.5 81.5q14 0 14 -10q-16 -115 -16 -332v-520z" />
    <glyph glyph-name="two" unicode="2" horiz-adv-x="909" 
d="M414 1133q-98 0 -158 -48q-19 -15 -33.5 -34t-20 -28.5t-19 -41.5t-17.5 -41l-27 2l-45 141q28 37 70.5 71.5t119.5 64.5t163 30q112 0 194 -42t123.5 -116.5t41.5 -171.5q0 -149 -148 -350q-63 -85 -127.5 -159t-100.5 -110t-104 -101q-36 -35 -36 -56q0 -3 0.5 -5
t2.5 -5q56 4 167 4q190 0 375 17q-10 -41 -10 -97q0 -24 6 -67q-244 10 -356 10q-10 0 -388 -10q-21 34 -20 80q1 15 3 26q4 4 71 66.5t103.5 99t100 101.5t115 128t92.5 125q78 117 78 275q0 104 -66 173t-150 69z" />
    <glyph glyph-name="three" unicode="3" horiz-adv-x="952" 
d="M428 59q35 0 75 12.5t86 41t76.5 91t30.5 148.5q0 129 -80 197q-80 66 -200 65q-61 0 -86 -4v90q43 -6 76 -6q111 0 169 58q78 74 78 200q0 94 -53 155.5t-117 61.5q-90 0 -144 -42t-93 -132l-31 2l-43 131l6 7q131 115 324 114q150 0 239.5 -76.5t89.5 -189.5
q0 -119 -75.5 -206t-165.5 -107v-11q121 -10 201.5 -91t80.5 -199q0 -127 -77.5 -219.5t-176 -131t-194.5 -38.5q-188 0 -305 98l-6 6l45 154l30 2q29 -59 40.5 -81t39 -51.5t64.5 -39t96 -9.5z" />
    <glyph glyph-name="four" unicode="4" horiz-adv-x="952" 
d="M586 303h-422q-121 0 -121 41q0 33 27 80q80 135 256 405.5t270 399.5l8 8q37 -8 70 -8q16 0 43.5 4t36.5 4q4 0 4 -8q-12 -113 -13 -303v-520h132q31 0 30 -33q0 -18 -19.5 -44t-39.5 -26h-103q0 -125 13 -303q0 -6 -4 -6q-8 0 -38 3t-48 3l-97 -6l-2 6q17 139 17 303z
M586 1049l-416 -643h416v643z" />
    <glyph glyph-name="five" unicode="5" horiz-adv-x="952" 
d="M414 -20q-178 0 -310 114l-8 6l45 164l29 2q6 -10 23.5 -43t22.5 -42t21.5 -32.5t24.5 -30.5t26.5 -22.5t36 -19.5t41 -9.5t52.5 -5.5q104 0 168.5 83t64.5 223q0 162 -65.5 245.5t-169.5 83.5q-96 0 -254 -63l-15 5l66 603q139 -12 233 -12q170 0 336 20l15 -6l-33 -139
q-100 -12 -215 -12q-123 0 -260 18l-43 -362q84 31 223 30q166 0 264 -110.5t98 -266.5q0 -182 -117.5 -301.5t-299.5 -119.5z" />
    <glyph glyph-name="six" unicode="6" horiz-adv-x="952" 
d="M260 567q-2 -20 -2 -75q0 -129 24.5 -220.5t67.5 -135.5t84 -62.5t88 -18.5q182 0 183 299q0 45 -9.5 90t-32 95.5t-72.5 81t-124 30.5q-125 0 -207 -84zM819 1194q-227 -23 -360 -152q-162 -158 -195 -415q37 45 109.5 75.5t136.5 30.5q113 0 192.5 -42t115.5 -105.5
t51.5 -116.5t15.5 -100q0 -61 -19.5 -124t-60.5 -124.5t-120 -100t-185 -38.5q-68 0 -131.5 21.5t-129 73.5t-105.5 160.5t-40 260.5q0 324 219 542q102 104 220 152.5t280 58.5z" />
    <glyph glyph-name="seven" unicode="7" horiz-adv-x="952" 
d="M707 1075q-371 12 -578 -18q10 78 10 100q0 10 -10 86q102 -14 573 -14q70 0 132 20l34 -20q-221 -541 -458 -1247l-150 -9l-6 13q129 288 453 1089z" />
    <glyph glyph-name="eight" unicode="8" horiz-adv-x="952" 
d="M481 1182q-88 0 -139 -50.5t-51 -125.5q0 -129 143 -224l64 -37q61 43 113.5 110t52.5 140q0 80 -44.5 133.5t-138.5 53.5zM815 993q0 -47 -22.5 -92t-65.5 -85t-74.5 -64.5t-79.5 -55.5l125 -82q178 -117 179 -282q0 -129 -113 -239.5t-301 -110.5q-170 0 -276.5 82.5
t-106.5 234.5q0 127 135 246q66 57 143 117l-41 22q-180 104 -180 285q0 119 100.5 199.5t256.5 80.5q150 0 235.5 -71.5t85.5 -184.5zM467 49q92 0 166 53.5t74 186.5q0 154 -181 266l-94 59q-193 -127 -192 -315q0 -125 70.5 -187.5t156.5 -62.5z" />
    <glyph glyph-name="nine" unicode="9" horiz-adv-x="952" 
d="M682 662q2 20 2 75q0 129 -24.5 220.5t-67.5 135.5t-84 62.5t-88 18.5q-182 0 -182 -300q0 -45 9 -90t31.5 -95t72.5 -80.5t124 -30.5q125 0 207 84zM123 35q227 23 360 151q162 158 195 416q-37 -45 -109.5 -75.5t-136.5 -30.5q-113 0 -192.5 42t-115.5 105.5
t-51.5 116.5t-15.5 100q0 61 19.5 124t60.5 124t120 100t185 39q68 0 131.5 -21.5t129 -73.5t105.5 -160.5t40 -260.5q0 -324 -219 -543q-102 -104 -220 -152t-280 -59z" />
    <glyph glyph-name="colon" unicode=":" horiz-adv-x="450" 
d="M125 729v8q27 76 111 111h8q84 -31 110 -111v-8q-29 -90 -110 -111h-8q-49 10 -73 35t-38 76zM125 190v9q27 76 111 110h8q84 -31 110 -110v-9q-29 -90 -110 -110h-8q-49 10 -73 34.5t-38 75.5z" />
    <glyph glyph-name="semicolon" unicode=";" horiz-adv-x="450" 
d="M104 729v8q27 76 111 111h8q84 -31 111 -111v-8q-29 -90 -111 -111h-8q-49 10 -73 35t-38 76zM98 90v8q27 76 111 111h8q131 -47 131 -215q0 -59 -15.5 -104.5t-52 -81t-62 -52t-83.5 -51.5q-27 23 -26 43q160 109 159 193q0 53 -59 53q-51 12 -75 29.5t-36 66.5z" />
    <glyph glyph-name="less" unicode="&#x3c;" horiz-adv-x="997" 
d="M250 489l649 -237v-102l-799 290v99l799 288v-102z" />
    <glyph glyph-name="equal" unicode="=" horiz-adv-x="1079" 
d="M944 651v-100h-809v100h809zM944 395v-100h-809v100h809z" />
    <glyph glyph-name="greater" unicode="&#x3e;" horiz-adv-x="997" 
d="M750 483l-650 238v102l799 -291v-98l-799 -289v103z" />
    <glyph glyph-name="question" unicode="?" horiz-adv-x="829" 
d="M399 1268q-141 0 -252 -193l-26 2l-33 137l6 9q152 127 324 127q156 0 247 -84t91 -226q0 -76 -39 -142.5t-76 -99t-102 -79.5q-86 -63 -107 -103q-37 -72 -37 -149v-90q0 -20 -26.5 -20.5t-26.5 20.5v94q0 59 5 100t38 107.5t94 122.5q66 61 94.5 111.5t28.5 119.5
q0 100 -57.5 168t-145.5 68zM254 90v8q27 76 111 111h8q84 -31 110 -111v-8q-29 -90 -110 -110h-8q-49 10 -73 34.5t-38 75.5z" />
    <glyph glyph-name="at" unicode="@" horiz-adv-x="1832" 
d="M1165 647q0 57 -37.5 93t-95.5 36q-35 0 -89 -19.5t-95 -62.5q-139 -139 -139 -362q0 -188 159 -189q53 0 121 77t115 190q61 147 61 237zM1194 152q0 -25 23 -25q168 0 253.5 97.5t85.5 338.5q0 152 -59 276t-153.5 197.5t-199 113.5t-204.5 40q-121 0 -234.5 -42
t-209 -123t-153.5 -219t-58 -312q0 -98 19.5 -196.5t69.5 -200t124.5 -178.5t196.5 -126t274 -49q242 0 411 135l27 -37q-109 -82 -213 -124t-264 -42q-360 0 -584.5 223.5t-224.5 557.5q0 330 246.5 562t593.5 232q328 0 542.5 -192.5t214.5 -480.5q0 -94 -30.5 -181.5
t-95 -166t-184.5 -127t-280 -48.5q-74 0 -73 84q0 33 30 129l-4 2q-63 -106 -138 -158.5t-134 -52.5q-72 0 -125 28t-77.5 70t-36 80.5t-11.5 75.5q0 211 152.5 369t324.5 158q51 0 97.5 -24.5t60.5 -63.5l10 49l109 26l30 -10l-122 -528q-27 -119 -27 -137z" />
    <glyph glyph-name="A" unicode="A" horiz-adv-x="1288" 
d="M834 564q-44 115 -95.5 241t-111.5 264h-4l-216 -504q24 0 102 -2t112 -2q87 0 213 3zM367 468q-59 -145 -103 -265t-67 -209q-25 6 -93 6q-47 0 -71 -6q348 764 604 1354h57q70 -166 198 -483.5t223 -549t140 -321.5q-35 6 -122 6q-68 0 -103 -6q-4 14 -9.5 32.5t-15 50
t-22.5 71t-29 87t-37.5 108.5t-45.5 125q-67 2 -127 2.5t-113 0.5q-117 0 -264 -3z" />
    <glyph glyph-name="B" unicode="B" horiz-adv-x="1261" 
d="M389 1145v-385h160q137 0 212 51t75 174q0 141 -77 197.5t-184 56.5q-119 0 -152.5 -19.5t-33.5 -74.5zM389 672v-492q0 -51 46 -74.5t153 -23.5q203 0 273.5 66.5t70.5 189.5q0 145 -90 239.5t-262 94.5h-191zM301 1321q55 0 141 3t119 3q109 0 193 -20.5t132 -51
t77.5 -74.5t40 -85t10.5 -86q0 -82 -54.5 -158t-136.5 -115q311 -90 312 -360q0 -72 -24 -135.5t-77 -122t-157.5 -92t-249.5 -33.5q-98 0 -183.5 3t-142.5 3l-106 -6l-2 6q20 139 20 410v501q0 264 -20 410l4 6q34 -6 104 -6z" />
    <glyph glyph-name="C" unicode="C" horiz-adv-x="1386" 
d="M778 1348q111 0 222.5 -22.5t167.5 -46.5l57 -24l4 -6q-35 -147 -41 -227l-21 -2q-115 231 -417 231q-68 0 -139.5 -31.5t-139.5 -95t-111 -178.5t-43 -262q0 -156 50.5 -289t160 -222t260.5 -89q141 0 233.5 45t203.5 166l49 -39q-211 -276 -504 -276q-211 0 -365.5 99
t-226.5 247.5t-72 318.5q0 295 203 499t469 204z" />
    <glyph glyph-name="D" unicode="D" horiz-adv-x="1454" 
d="M389 168q0 -51 39 -66.5t184 -15.5q119 0 206 20.5t163 71.5t116 152.5t40 251.5q0 127 -29 236.5t-92.5 207.5t-179 154.5t-275.5 56.5q-86 0 -129 -16.5t-43 -65.5v-987zM301 1321q66 0 169 3t169 3q295 0 502 -204.5t207 -491.5q0 -145 -43 -259t-110 -182.5
t-158 -113.5t-179 -62.5t-182 -17.5q-115 0 -213 2t-162 2l-106 -6l-2 6q20 139 20 410v501q0 264 -20 410l4 6q34 -6 104 -6z" />
    <glyph glyph-name="E" unicode="E" horiz-adv-x="1101" 
d="M389 410q0 -240 17 -295q123 0 267 6t227 12l83 6l4 -8q-4 -33 -4 -68q0 -6 4 -63l-4 -6q-49 6 -123 6h-559l-106 -6l-2 6q20 139 20 410v501q0 264 -20 410l4 6q35 -6 104 -6h539q74 0 123 6l4 -6q-4 -57 -4 -77.5t4 -53.5l-4 -8q-283 25 -557 24q-16 -55 -17 -295v-159
q215 0 457 20l6 -6q-6 -29 -6 -65.5t6 -65.5l-6 -6q-203 20 -457 20v-239z" />
    <glyph glyph-name="F" unicode="F" horiz-adv-x="1032" 
d="M834 1321q80 0 129 6l4 -6q-4 -57 -4 -70q0 -29 4 -61l-4 -8q-283 25 -557 24q-16 -55 -17 -295v-159q215 0 457 20l6 -6q-6 -29 -6 -65.5t6 -65.5l-6 -6q-203 20 -457 20v-239q0 -264 21 -410l-4 -6q-35 6 -105 6l-106 -6l-2 6q20 139 20 410v501q0 264 -20 410l4 6
q35 -6 104 -6h533z" />
    <glyph glyph-name="G" unicode="G" horiz-adv-x="1468" 
d="M1118 240q-6 283 -20 389l4 6q35 -6 104 -6l107 6l2 -6q-20 -135 -21 -348v-13q0 -74 21 -98v-6q-219 -184 -545 -184q-299 0 -481.5 196.5t-182.5 472.5q0 164 61.5 299t164 220t229.5 132.5t260 47.5q111 0 227.5 -22.5t178.5 -46.5l61 -24l4 -6q-33 -139 -41 -248
l-20 -2q-70 117 -185.5 184.5t-252.5 67.5q-211 0 -343.5 -157.5t-132.5 -423.5q0 -106 28 -208t84 -191t156.5 -143t231.5 -54q219 0 301 78v88z" />
    <glyph glyph-name="H" unicode="H" horiz-adv-x="1486" 
d="M1098 911q0 264 -21 410l4 6q37 -6 105 -6q70 0 106 6l2 -6q-20 -135 -20 -410v-501q0 -264 20 -410l-4 -6q-37 6 -104 6q-70 0 -107 -6l-2 6q20 139 21 410v247h-709v-247q0 -264 21 -410l-4 -6q-37 6 -105 6q-70 0 -106 -6l-2 6q20 139 20 410v501q0 264 -20 410l4 6
q37 -6 104 -6q70 0 107 6l2 -6q-20 -135 -21 -410v-163h709v163z" />
    <glyph glyph-name="I" unicode="I" horiz-adv-x="602" 
d="M213 911q0 264 -20 410l4 6q37 -6 104.5 -6t104.5 6l4 -6q-20 -135 -21 -410v-501q0 -264 21 -410l-4 -6q-37 6 -105 6t-104 -6l-4 6q20 139 20 410v501z" />
    <glyph glyph-name="J" unicode="J" horiz-adv-x="655" 
d="M287 195v716q0 264 -21 410l4 6q37 -6 105 -6q70 0 106 6l2 -6q-20 -135 -20 -410v-671q0 -174 -23.5 -252t-105.5 -185q-121 -156 -324 -155q-63 0 -92 18l-2 6q25 43 57 168l23 2q39 -72 119 -71q57 0 94 37.5t52 109.5t20.5 131.5t5.5 145.5z" />
    <glyph glyph-name="K" unicode="K" horiz-adv-x="1288" 
d="M213 911q0 264 -20 410l4 6q37 -6 104.5 -6t104.5 6l4 -6q-20 -135 -21 -410v-206q27 3 45 18q240 209 584 604q27 -6 100 -6q72 0 105 6q-422 -371 -623 -602v-4l643 -727q-39 6 -127 6q-92 0 -127 -6q-449 553 -561 665q-5 4 -12.5 7t-14 4.5t-12.5 2.5v-263
q0 -264 21 -410l-4 -6q-37 6 -105 6t-104 -6l-4 6q20 139 20 410v501z" />
    <glyph glyph-name="L" unicode="L" horiz-adv-x="1054" 
d="M391 911v-501q0 -229 17 -285q123 0 267 11t227 23l83 11l4 -8q-4 -33 -4 -72q0 -33 4 -90l-4 -6q-49 6 -123 6h-559l-106 -6l-2 6q20 139 20 410v501q0 264 -20 410l4 6q37 -6 104 -6q70 0 107 6l2 -6q-21 -136 -21 -410z" />
    <glyph glyph-name="M" unicode="M" horiz-adv-x="1814" 
d="M395 1356h56q55 -113 119 -261t112 -261.5t114 -256.5t131 -262l529 1041h45q94 -815 172 -1362q-31 6 -108 6q-70 0 -101 -6q-54 651 -93 974l-7 1q-268 -496 -475 -969h-39q-34 72 -71.5 158t-68.5 161.5t-68 163t-70 164.5t-73 164t-79 164h-9q-21 -132 -51.5 -331.5
t-58 -381t-41.5 -268.5q-23 6 -61 6q-45 0 -68 -6q166 799 264 1362z" />
    <glyph glyph-name="N" unicode="N" horiz-adv-x="1470" 
d="M221 1321l4 6q16 -6 86 -6l29 4l702 -909q82 -106 97 -113t20 19q3 15 4 43v546q0 264 -20 410l4 6q37 -6 71.5 -6t71.5 6l4 -6q-12 -160 -19 -335t-9 -290.5t-6.5 -328.5t-6.5 -324q-4 -63 -39 -63q-51 0 -88 49l-714 903q-31 41 -45.5 56.5t-23.5 10t-10 -26t-1 -73.5
v-489q0 -264 20 -410l-4 -6q-37 6 -71.5 6t-71.5 -6l-4 6q25 238 29.5 637t-9.5 684z" />
    <glyph glyph-name="O" unicode="O" horiz-adv-x="1517" 
d="M727 1257q-168 0 -289 -144t-121 -443q0 -281 141.5 -440.5t338.5 -159.5q180 0 291.5 148.5t111.5 416.5q0 311 -125 466.5t-348 155.5zM1411 674q0 -307 -181 -500.5t-474 -193.5q-272 0 -461 180t-189 475q0 301 186.5 507t461.5 206q281 0 469 -187.5t188 -486.5z
" />
    <glyph glyph-name="P" unicode="P" horiz-adv-x="1144" 
d="M389 1157v-483q39 -20 162 -21q158 0 235.5 71t77.5 241q0 88 -24.5 146t-69.5 87t-91 39t-106 10q-106 0 -145 -21.5t-39 -68.5zM213 911q0 264 -20 410l4 6q37 -6 104 -6q31 0 145.5 7t141.5 7q135 0 233.5 -33.5t147.5 -90t71.5 -115t22.5 -121.5q0 -70 -27.5 -138.5
t-83 -131t-157 -101.5t-234.5 -39q-109 0 -172 21v-176q0 -264 21 -410l-4 -6q-37 6 -105 6t-104 -6l-4 6q20 139 20 410v501z" />
    <glyph glyph-name="Q" unicode="Q" horiz-adv-x="1517" 
d="M727 1257q-168 0 -289 -144t-121 -443q0 -281 141.5 -440.5t338.5 -159.5q180 0 291.5 148.5t111.5 416.5q0 311 -125 466.5t-348 155.5zM1148 101q9 -5 119.5 -71t200.5 -109.5t191 -78.5v-12q-135 -72 -193 -117q-92 52 -239 161q-100 73 -236 144q-36 -13 -74 -21.5
t-78.5 -12.5t-82.5 -4q-272 0 -461 180t-189 475q0 301 186.5 507t461.5 206q281 0 469 -187.5t188 -486.5q0 -185 -69 -333.5t-194 -239.5z" />
    <glyph glyph-name="R" unicode="R" horiz-adv-x="1228" 
d="M389 586v-176q0 -264 21 -410l-4 -6q-37 6 -105 6t-104 -6l-4 6q20 139 20 410v501q0 264 -20 410l4 6q37 -6 104 -6q33 0 142.5 7t134.5 7q279 0 383 -98q109 -102 108 -256q0 -227 -205 -330q-45 -23 -124 -39q48 -64 214 -305.5t224 -306.5l-4 -6q-41 6 -123 6
q-84 0 -123 -6q-37 111 -195 366q-10 16 -36.5 60t-39.5 64.5t-35.5 52t-42.5 55.5q-86 -6 -190 -6zM580 1247q-135 0 -163 -14t-28 -76v-489h119q168 0 266 68.5t98 242.5q0 78 -27.5 134t-73.5 84t-92 39t-99 11z" />
    <glyph glyph-name="S" unicode="S" horiz-adv-x="1036" 
d="M496 70q96 0 167.5 64.5t71.5 174.5q0 119 -61.5 183.5t-177.5 113.5q-76 31 -129.5 61.5t-108.5 77t-85 108.5t-30 140q0 106 64.5 192.5t161.5 127.5q84 35 176 35q106 0 187 -22.5t110 -46.5l28 -24l4 -6q-39 -129 -47 -205l-20 -2q-41 96 -118 155.5t-161 59.5
q-78 0 -125 -24q-39 -20 -66.5 -74.5t-27.5 -109.5q0 -59 22.5 -106.5t65.5 -78t77 -48t85 -36.5q367 -137 367 -409q0 -176 -127 -283.5t-320 -107.5q-106 0 -199.5 22.5t-133.5 45.5l-40 24l-4 6q41 152 48 211l20 2q47 -90 143.5 -155.5t182.5 -65.5z" />
    <glyph glyph-name="T" unicode="T" horiz-adv-x="1105" 
d="M465 911q0 240 -16 295q-123 0 -226.5 -7t-145.5 -14l-42 -7l-4 8q6 47 0 135l4 6q49 -6 123 -6h790q74 0 123 6l4 -6q-6 -88 0 -135l-4 -8q-139 29 -414 28q-16 -55 -16 -295v-501q0 -264 21 -410l-5 -6q-37 6 -104.5 6t-103.5 -6l-5 6q20 139 21 410v501z" />
    <glyph glyph-name="U" unicode="U" horiz-adv-x="1417" 
d="M1114 911q0 264 -20 410l4 6q37 -6 71.5 -6t71.5 6l4 -6q-20 -135 -20 -410v-307q0 -299 -120 -461.5t-415 -162.5q-80 0 -154.5 21.5t-151.5 72.5t-124 156.5t-47 252.5v428q0 264 -20 410l4 6q37 -6 104.5 -6t104.5 6l4 -6q-20 -135 -21 -410v-360q0 -457 344 -457
q100 0 172 29t112 71t62.5 109.5t28.5 125.5t6 138v344z" />
    <glyph glyph-name="V" unicode="V" horiz-adv-x="1292" 
d="M664 271q12 27 50 115.5t54.5 126.5t52.5 122t55 131.5t49.5 122t49.5 125.5t41 111t38 109.5t27 92.5q35 -6 93 -6q45 0 81 6q-397 -872 -604 -1347h-57q-68 162 -197 480t-224 546.5t-140 320.5q57 -6 123 -6q55 0 112 6q128 -446 391 -1056h5z" />
    <glyph glyph-name="W" unicode="W" horiz-adv-x="1947" 
d="M1319 270q6 14 50 114.5t55.5 128.5t51.5 121t56 133t49 120t50.5 127t41 109.5t37.5 111.5t27 92q25 -6 102 -6q47 0 72 6q-397 -872 -604 -1347h-58q-120 337 -269 740l-329 -740h-57q-68 162 -197 480t-224 546.5t-140 320.5q35 -6 123 -6q68 0 102 6
q121 -426 404 -1075h4q204 474 260 612q-39 104 -71.5 190.5t-60 158t-44.5 114.5q35 -6 122 -6q78 0 113 6q55 -250 330 -1057h4z" />
    <glyph glyph-name="X" unicode="X" horiz-adv-x="1189" 
d="M1155 -6q-37 6 -119 6t-118 -6q-31 59 -63.5 115.5t-72.5 119.5t-67 104t-78.5 118t-74.5 112q-197 -301 -343 -569q-23 6 -86 6t-86 -6l453 663l-443 670q35 -6 115 -6t117 6q21 -43 61.5 -111t70.5 -114.5t102 -155.5t95 -146q137 198 195 289t137 238q23 -6 86.5 -6
t85.5 6q-27 -38 -105.5 -145t-166.5 -230t-171 -245q326 -501 476 -713z" />
    <glyph glyph-name="Y" unicode="Y" horiz-adv-x="1191" 
d="M682 584q4 -475 14 -590q-37 6 -102.5 6t-101.5 -6q14 158 14 569q-61 104 -237.5 390t-235.5 374q51 -6 117 -6q63 0 116 6q49 -96 359 -631q229 360 358 631q37 -6 86 -6q45 0 86 6q-63 -98 -161.5 -246.5t-140.5 -213t-91 -144.5t-80 -139z" />
    <glyph glyph-name="Z" unicode="Z" horiz-adv-x="1273" 
d="M383 111q119 0 313.5 10t329.5 21l135 12l4 -7q-4 -33 -4 -67q0 -23 4 -80l-4 -6q-49 6 -145 6h-744l-178 -6l-6 8q12 16 30.5 44t22.5 32l756 1108q16 25 -6 24q-113 0 -225.5 -7t-257 -18t-244.5 -18l-4 7q4 33 4 67q0 23 -4 80l4 6q49 -6 125 -6h622q166 0 258 12
q12 0 13 -12q0 -25 -62 -111l-727 -1063q-10 -13 -10 -36z" />
    <glyph glyph-name="bracketleft" unicode="[" horiz-adv-x="739" 
d="M225 -119v1576h441v-52q-74 -5 -120.5 -10t-82.5 -15.5t-53.5 -22t-29 -35t-13.5 -48t-2 -67.5v-1076q0 -43 2 -67t13 -48t28.5 -35t53.5 -22t82.5 -16.5t121.5 -10.5v-51h-441z" />
    <glyph glyph-name="backslash" unicode="\" horiz-adv-x="598" 
d="M123 1430l471 -1528h-100l-471 1528h100z" />
    <glyph glyph-name="bracketright" unicode="]" horiz-adv-x="739" 
d="M514 1457v-1576h-440v53q74 5 120 10t82 15.5t54 22t29 35t13.5 47.5t2.5 67v1076q0 43 -2.5 67t-13.5 48t-28.5 35.5t-53.5 22t-82.5 16t-120.5 10.5v51h440z" />
    <glyph glyph-name="asciicircum" unicode="^" horiz-adv-x="1060" 
d="M530 1214l-208 -505h-93l260 622h86l259 -622h-93z" />
    <glyph glyph-name="underscore" unicode="_" horiz-adv-x="995" 
d="M987 -225v-90h-977v90h977z" />
    <glyph glyph-name="grave" unicode="`" horiz-adv-x="802" 
d="M365 1432l143 -258q12 -25 12 -50q0 -8 -9 -15t-22 -7q-16 0 -59 41l-233 223l4 23q63 47 133 47q15 0 31 -4z" />
    <glyph glyph-name="a" unicode="a" 
d="M300 326q-87 -214 -118 -330q-18 4 -67 4q-63 0 -82 -4q227 494 434 975h117q49 -117 141 -347.5t160.5 -396.5t101.5 -231q-25 4 -131 4q-49 0 -74 -4q-36 127 -111 330q-40 1 -60.5 1.5t-55 1.5t-61.5 1q-37 0 -94 -1t-100 -3zM641 407q-20 53 -43 109t-50 121t-56 133
h-5q-15 -36 -46 -108.5t-58 -135.5t-50 -118q21 0 76 -2.5t78 -2.5q31 0 73.5 1.5t80.5 2.5z" />
    <glyph glyph-name="b" unicode="b" horiz-adv-x="1009" 
d="M344 823v-276h141q100 0 143.5 40t43.5 132q0 100 -51.5 131t-139.5 31q-96 0 -116.5 -9.5t-20.5 -48.5zM344 477v-340q0 -31 5 -43t35 -22.5t93 -10.5q139 0 187.5 60.5t48.5 148.5q0 109 -47.5 158t-180.5 49h-141zM258 942q168 6 225 6q352 0 353 -227
q0 -59 -44 -119.5t-106 -89.5q211 -49 211 -256q0 -102 -102.5 -182t-266.5 -80q-63 0 -154 3t-116 3l-100 -6l-2 6q20 123 20 367v208q0 244 -20 367l2 6q28 -6 100 -6z" />
    <glyph glyph-name="c" unicode="c" horiz-adv-x="1032" 
d="M592 891q-322 0 -322 -416q0 -111 29 -200t106.5 -152.5t194.5 -63.5q100 0 163.5 35t137.5 121l43 -51q-74 -98 -154.5 -141t-199.5 -43q-225 0 -362.5 143t-137.5 332q0 221 142.5 364.5t353.5 143.5q55 0 103 -5.5t78 -10.5t61.5 -16t44 -17.5t38 -20.5t31.5 -16l4 -7
l-47 -168l-27 -2q-25 43 -45 71t-53 58.5t-79 46t-103 15.5z" />
    <glyph glyph-name="d" unicode="d" horiz-adv-x="1159" 
d="M340 166q0 -49 33 -70.5t141 -21.5q182 0 268 74.5t86 277.5q0 84 -20.5 160t-63.5 141.5t-122.5 104t-186.5 38.5q-135 0 -135 -67v-637zM258 942q39 0 101.5 2t107.5 3t68 1q227 0 368 -139t141 -348q0 -129 -41.5 -223.5t-114.5 -144.5t-153 -73.5t-172 -23.5
q-96 0 -194.5 2t-110.5 2l-100 -6l-2 6q20 123 20 367v208q0 244 -20 367l2 6q28 -6 100 -6z" />
    <glyph glyph-name="e" unicode="e" horiz-adv-x="964" 
d="M262 942h416q74 0 123 6l4 -6q-4 -57 -4 -63q0 -10 4 -43l-4 -9q-170 25 -445 25q-16 -55 -16 -279v-38q111 0 163 2t100 9t81 9l6 -6q-6 -29 -6 -57.5t6 -57.5l-6 -6q-203 20 -344 21v-80q0 -213 16 -269q123 0 239 6.5t171 12.5l55 6l4 -8q-4 -33 -4 -64q0 -8 1 -15
t2 -17.5t1 -20.5l-4 -6q-49 6 -123 6h-436l-104 -6l-2 6q20 123 20 367v208q0 244 -20 367l2 6q32 -6 104 -6z" />
    <glyph glyph-name="f" unicode="f" horiz-adv-x="897" 
d="M340 367q0 -244 20 -367l-2 -6q-25 6 -100 6l-100 -6l-2 6q20 123 20 367v208q0 244 -20 367l2 6q33 -6 104 -6h416q74 0 123 6l4 -6q-4 -57 -4 -63q0 -10 4 -43l-4 -9q-170 25 -445 25q-16 -55 -16 -279v-38q111 0 163 2t100 9t81 9l6 -6q-6 -29 -6 -57.5t6 -57.5l-6 -6
q-203 20 -344 21v-82z" />
    <glyph glyph-name="g" unicode="g" horiz-adv-x="1126" 
d="M819 135q0 152 -20 297l4 6q27 -6 96 -6l102 6l3 -6q-20 -135 -21 -256v-2q0 -23 25 -47q-213 -147 -412 -147q-217 0 -361.5 134t-144.5 332q0 238 150.5 377.5t382.5 139.5q47 0 88 -2.5t73.5 -8.5t55 -11t46 -15.5t34 -14.5t32 -16t27.5 -14l4 -7l-47 -167l-27 -2
q-33 57 -61.5 91.5t-85.5 64.5t-133 30q-162 0 -261.5 -116t-99.5 -302q0 -68 21.5 -138.5t63.5 -135t116 -106.5t164 -42q111 0 186 76v8z" />
    <glyph glyph-name="h" unicode="h" horiz-adv-x="1153" 
d="M811 575q0 244 -20 367l2 6q29 -6 100 -6l98 6l4 -6q-20 -156 -20 -367v-208q0 -238 20 -367l-4 -6q-29 6 -98 6l-100 -6l-2 6q20 123 20 367v63h-473v-63q0 -238 20 -367l-4 -6q-29 6 -98 6l-100 -6l-2 6q20 123 20 367v208q0 244 -20 367l2 6q29 -6 100 -6l98 6l4 -6
q-20 -156 -20 -367v-61h473v61z" />
    <glyph glyph-name="i" unicode="i" horiz-adv-x="512" 
d="M174 575q0 244 -20 367l2 6q29 -6 100 -6l98 6l4 -6q-20 -156 -20 -367v-208q0 -238 20 -367l-4 -6q-29 6 -98 6l-100 -6l-2 6q20 123 20 367v208z" />
    <glyph glyph-name="j" unicode="j" horiz-adv-x="530" 
d="M188 195v344q0 264 -20 409l4 6q31 -6 100 -6l99 6l2 -6q-20 -135 -21 -409v-299q0 -178 -20.5 -256t-100.5 -183q-117 -156 -323 -155q-63 0 -92 18l-2 6q25 43 57 168l23 2q39 -72 118 -71q57 0 95 38.5t54.5 109.5t21.5 132.5t5 145.5z" />
    <glyph glyph-name="k" unicode="k" horiz-adv-x="1050" 
d="M174 575q0 244 -20 367l2 6q29 -6 100 -6l98 6l4 -6q-20 -156 -20 -367v-55q45 2 84 33q68 49 176.5 168t179.5 221q162 0 203 6l-4 -6q-129 -111 -432 -428q94 -113 173 -198t169 -173t143 -143l-4 -6q-31 6 -115 6t-137 -6q-45 63 -85 113.5t-83 98.5t-68.5 75.5
t-80 83t-78.5 81.5q-19 17 -41 19v-98q0 -238 20 -367l-4 -6q-29 6 -98 6l-100 -6l-2 6q20 123 20 367v208z" />
    <glyph glyph-name="l" unicode="l" horiz-adv-x="886" 
d="M338 367q0 -211 16 -267q123 0 239 6.5t171 12.5l55 6l4 -8q-4 -33 -4 -64q0 -8 1 -15t2 -17.5t1 -20.5l-4 -6q-49 6 -123 6h-436l-104 -6l-2 6q20 123 20 367v208q0 244 -20 367l2 6q27 -6 98 -6l100 6l4 -6q-20 -129 -20 -367v-208z" />
    <glyph glyph-name="m" unicode="m" horiz-adv-x="1372" 
d="M242 963h73q176 -356 377 -725l393 725h66q98 -856 115 -967q-23 4 -95 4q-53 0 -75 -4q-39 462 -63 669q-240 -439 -341 -665h-51q-50 106 -335 664q-59 -543 -60 -668q-14 4 -60 4q-63 0 -80 -4q99 613 136 967z" />
    <glyph glyph-name="n" unicode="n" horiz-adv-x="1118" 
d="M168 649q0 195 -14 293l2 4q27 -4 77 -4l72 4l500 -649q32 -39 39 -24q4 8 4 28v348q0 195 -14 293l4 4q16 -4 53 -4l74 4v-4q-14 -109 -15 -293v-618q0 -20 -18.5 -35.5t-34.5 -15.5q-41 0 -74 40l-510 646q-43 55 -43 -25v-348q0 -195 15 -293l-2 -6q-25 6 -60 6
l-67 -6l-2 6q14 90 14 293v356z" />
    <glyph glyph-name="o" unicode="o" horiz-adv-x="1167" 
d="M567 881q-125 0 -211 -104.5t-86 -301.5q0 -188 90.5 -302t239.5 -114q139 0 218 101.5t79 288.5q0 201 -94.5 316.5t-235.5 115.5zM1077 477q0 -211 -133 -354t-375 -143q-209 0 -344 132t-135 339q0 225 140.5 368.5t355.5 143.5q205 0 348 -136.5t143 -349.5z" />
    <glyph glyph-name="p" unicode="p" horiz-adv-x="890" 
d="M342 862v-397q47 -18 133 -19q92 0 134 53.5t42 172.5q0 123 -46 165t-140 42q-62 -1 -123 -17zM342 367q0 -238 20 -367l-4 -6q-31 6 -100 6l-102 -6l-2 6q20 123 20 367v208q0 244 -20 367l2 6q29 -6 100 -6q27 0 103.5 3t117.5 3q195 0 269.5 -74.5t74.5 -177.5
q0 -53 -14 -102t-50 -101.5t-110 -83t-176 -30.5q-82 0 -129 20v-32z" />
    <glyph glyph-name="q" unicode="q" horiz-adv-x="1167" 
d="M567 881q-125 0 -211 -104.5t-86 -301.5q0 -188 90.5 -302t239.5 -114q139 0 218 101.5t79 288.5q0 201 -94.5 316.5t-235.5 115.5zM878 67q242 -136 398 -196v-12q-125 -63 -184 -111q-27 20 -71 53q-66 49 -97 71t-81.5 53.5t-123.5 71.5q-70 -17 -150 -17
q-209 0 -344 132t-135 339q0 225 140.5 368.5t355.5 143.5q205 0 348 -136.5t143 -349.5q0 -127 -51 -235t-148 -175z" />
    <glyph glyph-name="r" unicode="r" horiz-adv-x="944" 
d="M641 709q0 166 -176 165q-74 0 -98.5 -14t-24.5 -47v-321h68q121 0 176 48t55 169zM454 423q-9 0 -18 -0.5t-18 -0.5h-76v-55q0 -238 20 -367l-4 -6q-31 6 -100 6l-102 -6l-2 6q20 123 20 367v208q0 244 -20 367l2 6q31 -6 102 -6q43 0 109.5 3t89.5 3q154 0 246 -61.5
t92 -177.5q0 -190 -179 -256q49 -66 157 -229t161 -224l-4 -6q-39 6 -101 6q-76 0 -112 -6q-16 63 -113 209q-13 20 -30 46.5t-30 47t-28 43t-30.5 44t-31.5 39.5z" />
    <glyph glyph-name="s" unicode="s" horiz-adv-x="800" 
d="M102 211l31 2q37 -70 104.5 -111t143.5 -41q82 0 133 50.5t51 136.5q0 39 -12 65.5t-48 48t-58.5 30.5t-86.5 34q-55 20 -82.5 32.5t-65.5 38t-58 56.5q-41 55 -41 143q0 127 102 197t231 70q131 0 259 -70l4 -6l-41 -148l-29 -2q-25 57 -77 101.5t-126 44.5
q-70 0 -120 -40t-50 -106q0 -39 16.5 -67.5t50.5 -50t55.5 -30.5t62.5 -24q68 -23 109.5 -42t86.5 -52t65.5 -80t20.5 -112q0 -51 -15.5 -98.5t-52 -95.5t-109.5 -76.5t-173 -28.5q-164 0 -315 57z" />
    <glyph glyph-name="t" unicode="t" horiz-adv-x="925" 
d="M379 829q-115 0 -196 -5t-104 -11l-24 -6l-4 6q6 45 0 129l4 4q61 -4 113 -4h590q51 0 112 4l4 -4q-6 -84 0 -129l-4 -6q-68 23 -323 22v-460q0 -240 20 -369l-4 -6q-31 6 -100 6l-103 -6l-2 6q20 123 21 369v460z" />
    <glyph glyph-name="u" unicode="u" horiz-adv-x="1128" 
d="M956 573v-114q0 -236 -87 -357.5t-318 -121.5q-57 0 -118.5 20t-121 62t-97.5 123t-38 186v202q0 246 -20 369l2 6q31 -6 102 -6l100 6l5 -6q-20 -129 -21 -369v-159q0 -66 4 -112t18.5 -95t40 -80t70.5 -50.5t109 -19.5q74 0 126 23.5t79.5 56.5t42 89.5t17.5 98.5
t3 107v141q0 246 -20 369l2 6q49 -6 69 -6l68 6l4 -6q-21 -129 -21 -369z" />
    <glyph glyph-name="v" unicode="v" horiz-adv-x="1052" 
d="M444 -6q-199 518 -399 954q35 -6 113 -6q74 0 102 6q117 -367 283 -749h18q86 182 287 749q20 -6 70 -6q70 0 90 6q-25 -55 -84.5 -186t-90 -203t-77.5 -179.5t-84 -200.5t-70 -185q-18 6 -80 6q-55 0 -78 -6z" />
    <glyph glyph-name="w" unicode="w" horiz-adv-x="1624" 
d="M442 -8q-215 559 -397 956q47 -8 113 -8q63 0 102 8q147 -465 275 -751h26q87 186 184 446q-65 156 -133 307q47 -8 115 -8q66 0 104 8q141 -449 277 -751h31q35 76 75.5 179t67.5 179t72 207t65 186q27 -8 68 -8q66 0 92 8q-35 -78 -106.5 -234.5t-113.5 -250.5
t-96.5 -226.5t-95.5 -244.5q-20 6 -86 6q-57 0 -80 -6q-138 358 -202 518q-72 -173 -197 -520q-18 6 -92 6q-45 0 -68 -6z" />
    <glyph glyph-name="x" unicode="x" horiz-adv-x="999" 
d="M408 457l-377 491q35 -6 127 -6q78 0 114 6q61 -104 248 -358q223 285 273 358q25 -6 77 -6q74 0 99 6l-387 -442q127 -182 381 -512q-33 6 -109 6q-92 0 -125 -6q-43 68 -254 368q-199 -276 -260 -368q-23 6 -96 6q-53 0 -76 -6z" />
    <glyph glyph-name="y" unicode="y" horiz-adv-x="915" 
d="M535 416q1 -128 4 -251t8 -171q-35 6 -88 6q-51 0 -88 -6q10 92 10 407q-217 371 -336 547q39 -6 96 -6q59 0 97 6q41 -81 243 -430q155 247 242 430q29 -6 74 -6q47 0 73 6q-35 -53 -81 -123.5t-71.5 -109.5t-57.5 -88.5t-51.5 -81.5t-39.5 -66.5t-34 -62.5z" />
    <glyph glyph-name="z" unicode="z" horiz-adv-x="911" 
d="M299 111q119 0 256 6t215 11l78 5l4 -6q-4 -33 -4 -68q0 -2 4 -59l-4 -6q-49 6 -123 6h-496l-178 -6l-8 10l49 66l516 761q-113 -2 -237.5 -7t-193.5 -10l-68 -5l-7 6q6 49 7 68q0 10 -3.5 28.5t-3.5 30.5l7 6q49 -6 122 -6h447q29 0 69.5 4t72.5 7t36 3q12 0 12 -14
q-8 -10 -67 -92z" />
    <glyph glyph-name="braceleft" unicode="{" horiz-adv-x="567" 
d="M365 1191l16 -292q6 -110 -47.5 -161.5t-167.5 -79.5v-7q113 -40 167 -101t48 -164l-16 -262q-2 -36 2.5 -68.5t15.5 -58.5t26.5 -46.5t34.5 -34t40.5 -21t43.5 -7.5q5 -4 7.5 -9.5t2.5 -11.5t-2.5 -11.5t-7.5 -9.5q-166 0 -242 62t-69 225l12 299q7 179 -200 201
q-25 21 0 42q72 6 118.5 37.5t64 71t17.5 87.5l-12 324q-6 141 78 205t233 64q24 -21 0 -42q-38 -9 -61 -19.5t-52 -34t-41.5 -68.5t-8.5 -109z" />
    <glyph glyph-name="bar" unicode="|" horiz-adv-x="430" 
d="M266 -475h-100v1905h100v-1905z" />
    <glyph glyph-name="braceright" unicode="}" horiz-adv-x="567" 
d="M195 117l-17 292q-6 110 47.5 161.5t167.5 80.5v7q-113 40 -167 100.5t-48 163.5l17 262q7 106 -43 171t-121 65q-3 3 -5 6.5t-3 7t-1 7.5t1 8t3 7.5t5 5.5q166 0 242 -61.5t69 -224.5l-12 -300q-7 -179 200 -201q8 -7 11.5 -13.5t1 -13.5t-12.5 -15
q-105 -9 -152.5 -64.5t-47.5 -131.5l12 -324q6 -141 -78 -205t-233 -64q-6 5 -8.5 13t0 16t8.5 13q38 9 61 19.5t52 34.5t42 68.5t9 108.5z" />
    <glyph glyph-name="asciitilde" unicode="~" horiz-adv-x="919" 
d="M53 428q20 104 96 183t166 79q45 0 152 -65q106 -68 149 -68q53 0 112.5 34t90.5 103l35 -12q-29 -100 -82 -159.5t-91 -73t-73 -13.5q-57 0 -153 68q-96 66 -152 65q-57 0 -123.5 -41t-99.5 -106z" />
    <glyph glyph-name="uni00A0" unicode="&#xa0;" horiz-adv-x="512" 
 />
    <glyph glyph-name="exclamdown" unicode="&#xa1;" horiz-adv-x="466" 
d="M236 -27q-45 0 -80 39t-35 111q0 76 22.5 205t30.5 190q12 96 19.5 183t9.5 134.5t4 55.5q4 41 28.5 41t28.5 -27l10 -145q10 -145 21 -242q8 -72 29.5 -193.5t21.5 -201.5q0 -76 -34.5 -113t-75.5 -37zM350 1231v-8q-27 -76 -110 -111h-9q-84 31 -110 111v8
q29 90 110 110h9q49 -10 72.5 -34.5t37.5 -75.5z" />
    <glyph glyph-name="cent" unicode="&#xa2;" 
d="M523 1344h79v-211q38 0 78 -4.5t75.5 -12.5t67 -18.5t55.5 -23.5l4 -6l-48 -172l-27 -2q-88 152 -205 155v-751h8q126 0 224 88h9l39 -44q-29 -37 -60.5 -64t-66.5 -45t-72.5 -27.5t-80.5 -11.5v-222h-79v224q-222 23 -317 221q-52 110 -52 253q0 180 108.5 303.5
t260.5 152.5v218zM523 314v721q-82 -32 -133.5 -125t-51.5 -229q0 -143 50.5 -238t134.5 -129z" />
    <glyph glyph-name="sterling" unicode="&#xa3;" 
d="M484 902v-156h274q16 0 16 -13v-49q0 -13 -16.5 -20.5t-36.5 -7.5h-237q-3 -308 -161 -456h12q70 0 122 -10.5t82 -25.5t55.5 -30t57.5 -26t71 -11q157 0 228 96l40 -23q-72 -154 -235 -186q-36 -7 -72 -7q-66 0 -118 20t-80.5 44.5t-79.5 45t-115 20.5q-93 0 -93 -54
q0 -37 -25 -56.5t-64 -19.5q-31 0 -50 17t-19 43q0 49 111 109q90 66 123 183.5t33 289.5v37h-139q-6 0 -9 1t-4.5 4t-1.5 9v30q0 17 13.5 31.5t40.5 14.5h100v45q0 94 14.5 157.5t45.5 113.5t89 108q156 156 388 156q60 0 93 -19l3 -7q-28 -48 -59 -167l-23 -3
q-43 72 -118 72q-92 0 -174 -92.5t-82 -207.5z" />
    <glyph glyph-name="currency" unicode="&#xa4;" 
d="M237 672q0 -131 75.5 -221.5t196.5 -90.5q119 0 194.5 91t75.5 219q0 130 -78 219.5t-187 89.5q-120 0 -198.5 -90t-78.5 -217zM509 263q-140 0 -251 84l-100 -124l-95 93l125 100q-45 54 -67.5 118t-22.5 136q0 151 90 256l-121 95l86 93l108 -119q112 82 248 82
q36 0 69.5 -5.5t65.5 -16t61.5 -27t57.5 -37.5l107 128l91 -96l-128 -102q88 -108 88 -251q0 -138 -86 -249l121 -102l-84 -89l-107 119q-38 -29 -79 -48t-85 -28.5t-92 -9.5z" />
    <glyph glyph-name="yen" unicode="&#xa5;" 
d="M109 532q-8 0 -9.5 2.5t-1.5 12.5v32q0 17 12 31.5t39 14.5h233q-38 71 -184.5 356.5t-188.5 355.5q35 -7 119 -7h11h11h12t12 0.5t12 0.5t12 0.5t12.5 1t11.5 1t11.5 1.5t10.5 2q149 -385 292 -635q28 45 56 96.5t49 94.5t48 106t44 104t47.5 116.5t47.5 117.5
q23 -7 86 -7h21t21 1t24 2.5t20 3.5q-177 -310 -385 -712h299q5 0 8.5 -1t5.5 -4.5t2 -7.5v-49q0 -7 -5 -13.5t-13 -10t-17 -5.5t-18 -2h-280q1 -108 2 -146h315q16 0 16 -14v-46q0 -14 -16.5 -22.5t-36.5 -8.5h-277q2 -100 5.5 -180.5t6.5 -121.5q-34 7 -107 7
q-72 0 -105 -7q9 86 12 302h-303q-8 0 -9.5 2.5t-1.5 11.5v31q0 17 12 31.5t39 14.5h264q0 47 1 146h-305z" />
    <glyph glyph-name="brokenbar" unicode="&#xa6;" horiz-adv-x="419" 
d="M264 1380v-741h-98v741h98zM264 330v-742h-98v742h98z" />
    <glyph glyph-name="section" unicode="&#xa7;" horiz-adv-x="989" 
d="M302 793q-83 -82 -83 -168q0 -35 11.5 -69t24.5 -58.5t45 -53t49.5 -44t63.5 -43t60 -35t67.5 -34t59.5 -30.5q48 -25 87 -55q83 82 83 168q0 35 -11 68.5t-24.5 58t-45.5 53.5t-49 44t-63.5 43t-60.5 35t-67.5 33.5t-59.5 30.5q-48 26 -87 56zM256 834q-90 95 -90 223
q0 109 94 200t240 91q66 0 128 -27t85.5 -45.5t70.5 -56.5l7 -11l-35 -149l-29 -4q-57 98 -113.5 154.5t-132.5 56.5q-74 0 -124 -47.5t-50 -120.5q0 -135 164 -203q416 -170 416 -446q0 -173 -154 -288q90 -95 90 -222q0 -109 -94 -200t-240 -91q-66 0 -128 26.5t-85.5 45
t-70.5 57.5l-6 10l34 150l29 4q57 -98 113.5 -154.5t132.5 -56.5q74 0 124 47t50 121q0 135 -164 202q-416 170 -416 447q0 172 154 287z" />
    <glyph glyph-name="dieresis" unicode="&#xa8;" horiz-adv-x="776" 
d="M102 1176q0 41 29 69.5t68 28.5t67.5 -28.5t28.5 -69.5t-28.5 -69t-67.5 -28t-68 28t-29 69zM449 1176q0 41 28.5 69.5t67.5 28.5t67.5 -28.5t28.5 -69.5t-27.5 -69t-68.5 -28t-68.5 28t-27.5 69z" />
    <glyph glyph-name="copyright" unicode="&#xa9;" horiz-adv-x="1296" 
d="M899 442q-35 -53 -99.5 -92t-142.5 -39q-135 0 -227 91.5t-92 213.5q0 129 95 224.5t229 95.5q82 0 133 -15.5t69 -15.5l29 -160l-41 -8q-29 78 -73 115t-126 37q-76 0 -132 -58.5t-56 -193.5q0 -117 55 -191.5t156 -74.5q115 0 184 102zM649.5 47q-239.5 0 -409.5 170
t-170 409.5t170 408.5t409.5 169t408.5 -169t169 -408.5t-169 -409.5t-408.5 -170zM649 1141q-215 0 -365.5 -150.5t-150.5 -363.5t150.5 -363.5t365.5 -150.5q213 0 363.5 150.5t150.5 363.5t-150.5 363.5t-363.5 150.5z" />
    <glyph glyph-name="ordfeminine" unicode="&#xaa;" horiz-adv-x="608" 
d="M387 1032l-104 -31q-70 -20 -95.5 -49.5t-25.5 -77.5q0 -31 24.5 -53t65.5 -22q49 0 113 49q16 12 16 33zM487 842q0 -39 21 -39q8 0 49 26l4 -2l21 -26q-53 -68 -113 -68q-72 0 -80 74h-8q-53 -45 -85 -59.5t-83 -14.5q-74 0 -117 35t-43 102q0 63 56.5 112.5
t154.5 72.5l115 26q8 4 8 15q0 66 -21.5 102.5t-43 42.5t-52.5 6q-72 0 -139 -112h-16l-23 90l4 4q94 76 187 76q209 0 209 -207q0 -4 -2.5 -120t-2.5 -136z" />
    <glyph glyph-name="guillemotleft" unicode="&#xab;" horiz-adv-x="1112" 
d="M319 594q121 -137 261 -348q-8 -35 -50 -39q-209 225 -378 375v24q170 150 378 375q41 -4 50 -39q-140 -211 -261 -348zM688 594q121 -137 260 -348q-8 -35 -49 -39q-209 225 -379 375v24q170 150 379 375q41 -4 49 -39q-139 -211 -260 -348z" />
    <glyph glyph-name="logicalnot" unicode="&#xac;" horiz-adv-x="1146" 
d="M989 272v459h-940v90h1051v-549h-111z" />
    <glyph glyph-name="uni00AD" unicode="&#xad;" horiz-adv-x="681" 
d="M561 483h-463q-31 0 -30 35q0 25 16 50.5t35 25.5h469q29 0 28 -37q0 -18 -18.5 -46t-36.5 -28z" />
    <glyph glyph-name="registered" unicode="&#xae;" horiz-adv-x="1296" 
d="M883 758q0 -113 -119 -152l98 -168q31 -53 88 -43l8 -35q-35 -14 -73 -14q-82 0 -125 72l-98 164q-10 8 -76 8v-148q0 -39 24 -43l29 -4q23 -2 23 -12v-33l-5 -4q-84 4 -120 4l-125 -4l-4 4v35q0 8 20 10l35 4q27 4 26 43v369q0 51 -47 51h-22q-16 0 -17 10v35l5 4h278
q104 0 150.5 -48t46.5 -105zM770 758q0 104 -102 104q-82 0 -82 -51v-172h65q55 0 87 23.5t32 95.5zM649.5 47q-239.5 0 -409.5 170t-170 409.5t170 408.5t409.5 169t408.5 -169t169 -408.5t-169 -409.5t-408.5 -170zM649 1141q-215 0 -365.5 -150.5t-150.5 -363.5
t150.5 -363.5t365.5 -150.5q213 0 363.5 150.5t150.5 363.5t-150.5 363.5t-363.5 150.5z" />
    <glyph glyph-name="macron" unicode="&#xaf;" horiz-adv-x="813" 
d="M645 1083h-500q-25 0 -24 31q0 20 13 40t32 20h500q29 0 28 -29q0 -20 -15.5 -41t-33.5 -21z" />
    <glyph glyph-name="degree" unicode="&#xb0;" horiz-adv-x="546" 
d="M410 1073q0 57 -36 103.5t-99.5 46.5t-100.5 -45t-37 -105q0 -57 38 -100t99 -43q59 0 97.5 44t38.5 99zM70 1075q0 86 60 145.5t144 59.5t143.5 -59.5t59.5 -145.5q0 -84 -59.5 -143.5t-143.5 -59.5t-144 59.5t-60 143.5z" />
    <glyph glyph-name="plusminus" unicode="&#xb1;" horiz-adv-x="1079" 
d="M592 700h352v-100h-352v-356h-105v356h-352v100h352v357h105v-357zM944 139v-100h-809v100h809z" />
    <glyph glyph-name="two.superior" unicode="&#xb2;" horiz-adv-x="636" 
d="M145 1260h-26l-23 86l4 4q68 61 191 61q104 0 166 -43q68 -45 67.5 -129t-106.5 -184l-109 -107q-72 -72 -71 -94h88q59 0 202 10q-6 -29 -6 -71q0 -23 6 -52q-111 4 -188 4q-55 0 -260 -4l-2 4q0 70 149 224l82 80q68 70 68 192q0 47 -33 80q-29 31 -61 31
q-87 0 -138 -92z" />
    <glyph glyph-name="three.superior" unicode="&#xb3;" horiz-adv-x="641" 
d="M350 817q45 37 45 121q0 127 -121 127q-29 0 -41 -2v51q150 6 150 139q0 43 -23 72q-25 29 -55 29q-55 0 -84 -25q-25 -18 -53 -72h-27l-22 86l2 7q70 59 192 59q84 0 138 -31q59 -37 59 -108q0 -133 -129 -166v-4q68 -6 111 -43q51 -43 51 -115q0 -106 -86 -162
q-72 -47 -183 -47q-106 0 -176 62l-4 4l25 86l24 2q33 -57 50 -72q29 -25 83 -24q43 -1 74 26z" />
    <glyph glyph-name="acute" unicode="&#xb4;" horiz-adv-x="698" 
d="M358 1440q12 4 29 4q63 0 113 -47l6 -23l-236 -223q-39 -39 -61 -39q-10 0 -19.5 8t-9.5 19q0 20 24 57z" />
    <glyph glyph-name="uni00B5" unicode="&#xb5;" horiz-adv-x="995" 
d="M207 -479q-31 0 -71 38t-40 95q0 49 16.5 155.5t16.5 174.5q0 27 -9 126t-9 164v385l-21 220q27 0 89.5 9t78.5 11q6 -131 6 -197v-401q0 -229 142 -229q80 0 150.5 39t107.5 92v676q29 0 86 9t67 11v-645q0 -59 1 -84t6 -51.5t15.5 -34.5t30.5 -8q35 0 70 86l49 -23
q-33 -84 -71.5 -121.5t-114.5 -37.5q-57 0 -98 41.5t-41 101.5q-131 -143 -297 -143q-78 0 -117 47q-25 0 -25 -19q0 -72 33 -198.5t33 -165.5q0 -59 -23.5 -91t-60.5 -32z" />
    <glyph glyph-name="paragraph" unicode="&#xb6;" horiz-adv-x="1232" 
d="M752 1176v-1506q0 -78 82 -78q84 0 84 78v1506q0 78 -84 77q-82 1 -82 -77zM836 1321l202 6l2 -6q-20 -135 -20 -410v-977q0 -264 20 -409l-4 -6q-133 6 -202 6l-201 -6l-4 6q20 145 20 409v650q-27 -6 -65 -6q-227 0 -347 102t-120 305q0 135 100 237.5t289 102.5
q88 0 201 -2t129 -2z" />
    <glyph glyph-name="periodcentered" unicode="&#xb7;" horiz-adv-x="512" 
d="M256 418q-49 0 -80 32.5t-31 77.5q0 43 33 77t78 34q43 0 77 -33t34 -78t-32 -77.5t-79 -32.5z" />
    <glyph glyph-name="cedilla" unicode="&#xb8;" horiz-adv-x="1107" 
d="M618 -197q-53 0 -92 -12l-12 12l82 197h70l-52 -137q25 6 54 6q63 0 104 -35t41 -92q0 -66 -62.5 -109t-156.5 -43q-72 0 -152 35q0 33 21 53q78 -29 119 -28q47 0 75.5 21.5t28.5 60.5q0 71 -68 71z" />
    <glyph glyph-name="one.superior" unicode="&#xb9;" horiz-adv-x="786" 
d="M498 950q0 -119 14 -205l-2 -4q-37 4 -78 4q-39 0 -74 -4v4q12 74 13 205v267q0 70 -21 69q-72 0 -119 -6l-2 47q66 16 275 82q6 0 6 -6q-12 -84 -12 -176v-277z" />
    <glyph glyph-name="ordmasculine" unicode="&#xba;" horiz-adv-x="714" 
d="M80 879q0 131 75.5 205.5t206.5 74.5q141 0 208 -76.5t67 -191.5q0 -113 -74 -191.5t-211 -78.5q-115 0 -193.5 73.5t-78.5 184.5zM350 1108q-74 0 -112.5 -60.5t-38.5 -148.5q0 -86 45 -153.5t131 -67.5q55 0 100 41t45 139q0 121 -46 185.5t-124 64.5z" />
    <glyph glyph-name="guillemotright" unicode="&#xbb;" horiz-adv-x="1112" 
d="M778 594q-121 137 -260 348q8 35 49 39q209 -225 379 -375v-24q-170 -150 -379 -375q-41 4 -49 39q139 211 260 348zM410 594q-121 137 -260 348q8 35 49 39q209 -225 379 -375v-24q-170 -150 -379 -375q-41 4 -49 39q139 211 260 348z" />
    <glyph glyph-name="onequarter" unicode="&#xbc;" horiz-adv-x="1351" 
d="M1141 1231l84 -17l-938 -1341l-86 16zM813 16q-59 0 -61 15q0 35 12 51q125 168 280 428v4q12 -4 54 -4q39 0 73 4l3 -4q-10 -82 -11 -162v-260h78q14 0 14 -22q0 -10 -8 -29q-12 -20 -22 -21h-62q0 -80 11 -159l-3 -4q-35 4 -73 4q-41 0 -76 -4v4q12 92 12 159h-221z
M836 88h198v313zM492 850q0 -119 14 -205l-2 -4q-37 4 -78 4q-39 0 -74 -4v4q12 74 13 205v266q0 70 -21 70q-72 0 -119 -6l-2 47q66 16 275 82q6 0 6 -6q-12 -84 -12 -177v-276z" />
    <glyph glyph-name="onehalf" unicode="&#xbd;" horiz-adv-x="1351" 
d="M1090 1231l86 -17l-940 -1341l-84 16zM879 352h-27l-23 86l5 4q68 61 190 62q104 0 166 -43q68 -45 67.5 -129t-106.5 -185l-109 -106q-72 -72 -71 -94h88q59 0 203 10q-6 -29 -7 -72q0 -23 7 -51q-111 4 -189 4q-55 0 -260 -4l-2 4q0 70 150 223l81 80q68 70 68 193
q0 47 -33 80q-29 31 -61 30q-86 0 -137 -92zM496 850q0 -119 14 -205l-2 -4q-37 4 -78 4q-39 0 -74 -4v4q12 74 13 205v266q0 70 -21 70q-72 0 -119 -6l-2 47q66 16 275 82q6 0 6 -6q-12 -84 -12 -177v-276z" />
    <glyph glyph-name="threequarters" unicode="&#xbe;" horiz-adv-x="1351" 
d="M1151 1231l84 -17l-938 -1341l-86 16zM346 713q45 37 45 121q0 127 -121 127q-29 0 -41 -3v52q150 6 150 139q0 43 -23 72q-25 29 -55 28q-55 0 -84 -24q-25 -18 -53 -72h-27l-22 86l2 6q70 59 192 60q84 0 137 -31q59 -37 60 -109q0 -133 -129 -166v-4q68 -6 110 -43
q51 -43 52 -114q0 -106 -86 -162q-72 -47 -183 -47q-106 0 -176 61l-4 4l25 86l24 2q33 -57 49 -71q29 -25 84 -25q43 0 74 27zM821 20q-59 0 -61 15q0 35 12 51q125 168 281 428v4q12 -4 53 -4q39 0 74 4l2 -4q-10 -82 -11 -162v-260h78q14 0 15 -22q0 -10 -9 -29
q-12 -20 -22 -21h-62q0 -80 11 -159l-2 -4q-35 4 -74 4q-41 0 -76 -4v4q12 92 12 159h-221zM844 92h198v314z" />
    <glyph glyph-name="questiondown" unicode="&#xbf;" horiz-adv-x="829" 
d="M432 55q141 0 252 193l27 -2l32 -137l-6 -9q-152 -127 -323 -127q-156 0 -247 84t-91 226q0 76 39 142.5t75.5 99t102.5 79.5q86 63 106 103q37 72 37 149v90q0 20 26.5 20.5t26.5 -20.5v-94q0 -59 -5 -100t-37.5 -107.5t-94.5 -122.5q-66 -61 -94.5 -111.5t-28.5 -119.5
q0 -100 57.5 -168t145.5 -68zM578 1233v-8q-27 -76 -111 -111h-8q-84 31 -111 111v8q29 90 111 110h8q49 -10 73 -34.5t38 -75.5z" />
    <glyph glyph-name="Agrave" unicode="&#xc0;" horiz-adv-x="1288" 
d="M524 1675l248 -172q31 -23 31 -43q0 -12 -9.5 -21t-21.5 -9q-31 0 -88 24l-315 129q63 61 155 92zM834 564q-44 115 -95.5 241t-111.5 264h-4l-216 -504q24 0 102 -2t112 -2q87 0 213 3zM367 468q-59 -145 -103 -265t-67 -209q-25 6 -93 6q-47 0 -71 -6q348 764 604 1354
h57q70 -166 198 -483.5t223 -549t140 -321.5q-35 6 -122 6q-68 0 -103 -6q-4 14 -9.5 32.5t-15 50t-22.5 71t-29 87t-37.5 108.5t-45.5 125q-67 2 -127 2.5t-113 0.5q-117 0 -264 -3z" />
    <glyph glyph-name="Aacute" unicode="&#xc1;" horiz-adv-x="1288" 
d="M752 1679q88 -41 127 -106l-295 -119q-57 -25 -86 -24q-31 0 -31 30q0 23 31 43zM834 564q-44 115 -95.5 241t-111.5 264h-4l-216 -504q24 0 102 -2t112 -2q87 0 213 3zM367 468q-59 -145 -103 -265t-67 -209q-25 6 -93 6q-47 0 -71 -6q348 764 604 1354h57
q70 -166 198 -483.5t223 -549t140 -321.5q-35 6 -122 6q-68 0 -103 -6q-4 14 -9.5 32.5t-15 50t-22.5 71t-29 87t-37.5 108.5t-45.5 125q-67 2 -127 2.5t-113 0.5q-117 0 -264 -3z" />
    <glyph glyph-name="Acircumflex" unicode="&#xc2;" horiz-adv-x="1288" 
d="M709 1649q84 -100 206 -193l-32 -43q-127 59 -217 127q-102 -76 -220 -127l-28 43q88 66 203 193h88zM834 564q-44 115 -95.5 241t-111.5 264h-4l-216 -504q24 0 102 -2t112 -2q87 0 213 3zM367 468q-59 -145 -103 -265t-67 -209q-25 6 -93 6q-47 0 -71 -6
q348 764 604 1354h57q70 -166 198 -483.5t223 -549t140 -321.5q-35 6 -122 6q-68 0 -103 -6q-4 14 -9.5 32.5t-15 50t-22.5 71t-29 87t-37.5 108.5t-45.5 125q-67 2 -127 2.5t-113 0.5q-117 0 -264 -3z" />
    <glyph glyph-name="Atilde" unicode="&#xc3;" horiz-adv-x="1288" 
d="M807 1524q35 0 58.5 22.5t43.5 83.5l49 -12q-37 -184 -178 -184q-51 0 -131 53q-74 45 -110 45q-39 0 -61.5 -23.5t-39.5 -74.5l-49 10q23 92 60.5 137t103 45t147.5 -57q60 -45 107 -45zM834 564q-44 115 -95.5 241t-111.5 264h-4l-216 -504q24 0 102 -2t112 -2
q87 0 213 3zM367 468q-59 -145 -103 -265t-67 -209q-25 6 -93 6q-47 0 -71 -6q348 764 604 1354h57q70 -166 198 -483.5t223 -549t140 -321.5q-35 6 -122 6q-68 0 -103 -6q-4 14 -9.5 32.5t-15 50t-22.5 71t-29 87t-37.5 108.5t-45.5 125q-67 2 -127 2.5t-113 0.5
q-117 0 -264 -3z" />
    <glyph glyph-name="Adieresis" unicode="&#xc4;" horiz-adv-x="1288" 
d="M293 1452q0 39 27.5 65.5t66.5 26.5t65.5 -26.5t26.5 -65.5t-26.5 -65.5t-65.5 -26.5t-66.5 26.5t-27.5 65.5zM856 1452q0 39 27.5 65.5t66.5 26.5t65.5 -26.5t26.5 -65.5t-26.5 -65.5t-65.5 -26.5t-66.5 26.5t-27.5 65.5zM834 564q-44 115 -95.5 241t-111.5 264h-4
l-216 -504q24 0 102 -2t112 -2q87 0 213 3zM367 468q-59 -145 -103 -265t-67 -209q-25 6 -93 6q-47 0 -71 -6q348 764 604 1354h57q70 -166 198 -483.5t223 -549t140 -321.5q-35 6 -122 6q-68 0 -103 -6q-4 14 -9.5 32.5t-15 50t-22.5 71t-29 87t-37.5 108.5t-45.5 125
q-67 2 -127 2.5t-113 0.5q-117 0 -264 -3z" />
    <glyph glyph-name="Aring" unicode="&#xc5;" horiz-adv-x="1288" 
d="M664 1577q-47 0 -75 -34t-28 -81q0 -45 28.5 -79.5t74 -34.5t74 34.5t28.5 79.5q0 49 -28.5 82t-73.5 33zM485 1462q0 70 53.5 120t125 50t125 -49t53.5 -121q0 -56 -36 -101t-92 -62q67 -160 192.5 -471.5t215.5 -528.5t133 -305q-35 6 -122 6q-68 0 -103 -6
q-4 14 -9.5 32.5t-15 50t-22.5 71t-29 87t-37.5 108.5t-45.5 125q-67 2 -127 2.5t-113 0.5q-117 0 -264 -3q-59 -145 -103 -265t-67 -209q-25 6 -93 6q-47 0 -71 -6q336 735 583 1305q-56 16 -93.5 61t-37.5 102zM834 564q-44 115 -95.5 241t-111.5 264h-4l-216 -504
q24 0 102 -2t112 -2q87 0 213 3z" />
    <glyph glyph-name="AE" unicode="&#xc6;" horiz-adv-x="1642" 
d="M455 570q-164 -340 -254 -576q-25 6 -92 6q-47 0 -72 -6q52 99 127 247t134.5 265t132.5 255.5t153.5 281t165.5 279.5l4 5q35 -6 104 -6h436q74 0 123 6l4 -6q-4 -57 -4 -64q0 -20 4 -53l-4 -8q-159 21 -375 21q-115 0 -148 -19t-25 -81q41 -203 95 -435q224 0 459 20
l7 -6q-6 -29 -6.5 -57.5t6.5 -56.5l-7 -7q-172 17 -439 21q64 -272 121 -482l435 21l4 -8q-4 -33 -4 -68q0 -2 4 -59l-4 -6q-49 6 -123 6h-280h-3h-110q-68 0 -102 -6q0 101 -91 578q-68 1 -135 1q-98 0 -241 -3zM813 665q-34 178 -83 428h-4q-109 -192 -224 -426
q172 -3 184 -3h58t69 1z" />
    <glyph glyph-name="Ccedilla" unicode="&#xc7;" horiz-adv-x="1386" 
d="M752 -205q-53 0 -93 -12l-12 12l77 186q-148 8 -268.5 68t-195 153.5t-114.5 207.5t-40 235q0 295 203 499t469 204q111 0 222.5 -22.5t167.5 -46.5l57 -24l4 -6q-35 -147 -41 -227l-21 -2q-115 231 -417 231q-68 0 -139.5 -31.5t-139.5 -95t-111 -178.5t-43 -262
q0 -156 50.5 -289t160 -222t260.5 -89q141 0 233.5 45t203.5 166l49 -39q-204 -264 -480 -276l-46 -125q25 6 53 6q63 0 104 -35t41 -92q0 -66 -62.5 -109t-156.5 -43q-72 0 -152 35q0 33 21 53q78 -29 119 -28q47 0 75.5 21.5t28.5 60.5q1 71 -67 71z" />
    <glyph glyph-name="Egrave" unicode="&#xc8;" horiz-adv-x="1101" 
d="M389 410q0 -240 17 -295q123 0 267 6t227 12l83 6l4 -8q-4 -33 -4 -68q0 -6 4 -63l-4 -6q-49 6 -123 6h-559l-106 -6l-2 6q20 139 20 410v501q0 264 -20 410l4 6q35 -6 104 -6h539q74 0 123 6l4 -6q-4 -57 -4 -77.5t4 -53.5l-4 -8q-283 25 -557 24q-16 -55 -17 -295v-159
q215 0 457 20l6 -6q-6 -29 -6 -65.5t6 -65.5l-6 -6q-203 20 -457 20v-239zM502 1673l248 -172q31 -23 30 -43q0 -12 -9 -21.5t-21 -9.5q-31 0 -88 25l-316 129q64 61 156 92z" />
    <glyph glyph-name="Eacute" unicode="&#xc9;" horiz-adv-x="1101" 
d="M389 410q0 -240 17 -295q123 0 267 6t227 12l83 6l4 -8q-4 -33 -4 -68q0 -6 4 -63l-4 -6q-49 6 -123 6h-559l-106 -6l-2 6q20 139 20 410v501q0 264 -20 410l4 6q35 -6 104 -6h539q74 0 123 6l4 -6q-4 -57 -4 -77.5t4 -53.5l-4 -8q-283 25 -557 24q-16 -55 -17 -295v-159
q215 0 457 20l6 -6q-6 -29 -6 -65.5t6 -65.5l-6 -6q-203 20 -457 20v-239zM717 1679q88 -41 127 -106l-295 -119q-57 -25 -86 -24q-31 0 -31 30q0 23 31 43z" />
    <glyph glyph-name="Ecircumflex" unicode="&#xca;" horiz-adv-x="1101" 
d="M649 1649q84 -100 207 -193l-33 -43q-127 59 -217 127q-102 -76 -219 -127l-29 43q88 66 203 193h88zM389 410q0 -240 17 -295q123 0 267 6t227 12l83 6l4 -8q-4 -33 -4 -68q0 -6 4 -63l-4 -6q-49 6 -123 6h-559l-106 -6l-2 6q20 139 20 410v501q0 264 -20 410l4 6
q35 -6 104 -6h539q74 0 123 6l4 -6q-4 -57 -4 -77.5t4 -53.5l-4 -8q-283 25 -557 24q-16 -55 -17 -295v-159q215 0 457 20l6 -6q-6 -29 -6 -65.5t6 -65.5l-6 -6q-203 20 -457 20v-239z" />
    <glyph glyph-name="Edieresis" unicode="&#xcb;" horiz-adv-x="1101" 
d="M684 1538q0 39 28.5 68.5t69.5 29.5t70 -29.5t29 -68.5t-29 -68.5t-70 -29.5t-69.5 29.5t-28.5 68.5zM297 1538q0 39 29.5 68.5t68.5 29.5t69 -29.5t30 -68.5t-30 -68.5t-69 -29.5t-68.5 29.5t-29.5 68.5zM389 410q0 -240 17 -295q123 0 267 6t227 12l83 6l4 -8
q-4 -33 -4 -68q0 -6 4 -63l-4 -6q-49 6 -123 6h-559l-106 -6l-2 6q20 139 20 410v501q0 264 -20 410l4 6q35 -6 104 -6h539q74 0 123 6l4 -6q-4 -57 -4 -77.5t4 -53.5l-4 -8q-283 25 -557 24q-16 -55 -17 -295v-159q215 0 457 20l6 -6q-6 -29 -6 -65.5t6 -65.5l-6 -6
q-203 20 -457 20v-239z" />
    <glyph glyph-name="Igrave" unicode="&#xcc;" horiz-adv-x="602" 
d="M213 911q0 264 -20 410l4 6q37 -6 104.5 -6t104.5 6l4 -6q-20 -135 -21 -410v-501q0 -264 21 -410l-4 -6q-37 6 -105 6t-104 -6l-4 6q20 139 20 410v501zM203 1673l248 -172q31 -23 30 -43q0 -12 -9 -21.5t-21 -9.5q-31 0 -89 25l-315 129q64 61 156 92z" />
    <glyph glyph-name="Iacute" unicode="&#xcd;" horiz-adv-x="602" 
d="M213 911q0 264 -20 410l4 6q37 -6 104.5 -6t104.5 6l4 -6q-20 -135 -21 -410v-501q0 -264 21 -410l-4 -6q-37 6 -105 6t-104 -6l-4 6q20 139 20 410v501zM430 1677q88 -41 127 -106l-295 -119q-57 -25 -86 -25q-31 0 -31 31q0 23 31 43z" />
    <glyph glyph-name="Icircumflex" unicode="&#xce;" horiz-adv-x="602" 
d="M342 1649q84 -100 207 -193l-33 -43q-127 59 -217 127q-102 -76 -219 -127l-29 43q88 66 203 193h88zM213 911q0 264 -20 410l4 6q37 -6 104.5 -6t104.5 6l4 -6q-20 -135 -21 -410v-501q0 -264 21 -410l-4 -6q-37 6 -105 6t-104 -6l-4 6q20 139 20 410v501z" />
    <glyph glyph-name="Idieresis" unicode="&#xcf;" horiz-adv-x="602" 
d="M414 1536q0 41 28.5 69.5t69.5 28.5t69.5 -28.5t28.5 -69.5t-28.5 -69.5t-69.5 -28.5t-69.5 28.5t-28.5 69.5zM27 1536q0 41 29.5 69.5t68.5 28.5t68.5 -28.5t29.5 -69.5t-29.5 -69.5t-68.5 -28.5t-68.5 28.5t-29.5 69.5zM213 911q0 264 -20 410l4 6q37 -6 104.5 -6
t104.5 6l4 -6q-20 -135 -21 -410v-501q0 -264 21 -410l-4 -6q-37 6 -105 6t-104 -6l-4 6q20 139 20 410v501z" />
    <glyph glyph-name="Eth" unicode="&#xd0;" horiz-adv-x="1454" 
d="M389 168q0 -51 39 -66.5t184 -15.5q119 0 206 20.5t163 71.5t116 152.5t40 251.5q0 127 -29 236.5t-92.5 207.5t-179 154.5t-275.5 56.5q-86 0 -129 -16.5t-43 -65.5v-487h201v-80h-201v-420zM301 1321q66 0 169 3t169 3q295 0 502 -204.5t207 -491.5q0 -145 -43 -259
t-110 -182.5t-158 -113.5t-179 -62.5t-182 -17.5q-115 0 -213 2t-162 2l-106 -6l-2 6q20 139 20 410v178h-178v80h178v243q0 264 -20 410l4 6q34 -6 104 -6z" />
    <glyph glyph-name="Ntilde" unicode="&#xd1;" horiz-adv-x="1470" 
d="M854 1520q35 0 58.5 22.5t43.5 83.5l50 -12q-37 -184 -179 -184q-51 0 -131 53q-74 45 -110 45q-39 0 -61.5 -23.5t-39.5 -74.5l-49 10q23 92 61 137t103.5 45t147.5 -57q59 -45 106 -45zM221 1321l4 6q16 -6 86 -6l29 4l702 -909q82 -106 97 -113t20 19q3 15 4 43v546
q0 264 -20 410l4 6q37 -6 71.5 -6t71.5 6l4 -6q-12 -160 -19 -335t-9 -290.5t-6.5 -328.5t-6.5 -324q-4 -63 -39 -63q-51 0 -88 49l-714 903q-31 41 -45.5 56.5t-23.5 10t-10 -26t-1 -73.5v-489q0 -264 20 -410l-4 -6q-37 6 -71.5 6t-71.5 -6l-4 6q25 238 29.5 637t-9.5 684
z" />
    <glyph glyph-name="Ograve" unicode="&#xd2;" horiz-adv-x="1517" 
d="M727 1257q-168 0 -289 -144t-121 -443q0 -281 141.5 -440.5t338.5 -159.5q180 0 291.5 148.5t111.5 416.5q0 311 -125 466.5t-348 155.5zM1411 674q0 -307 -181 -500.5t-474 -193.5q-272 0 -461 180t-189 475q0 301 186.5 507t461.5 206q281 0 469 -187.5t188 -486.5z
M623 1677l247 -172q31 -23 31 -43q0 -12 -9 -21t-22 -9q-31 0 -88 24l-315 129q64 61 156 92z" />
    <glyph glyph-name="Oacute" unicode="&#xd3;" horiz-adv-x="1517" 
d="M727 1257q-168 0 -289 -144t-121 -443q0 -281 141.5 -440.5t338.5 -159.5q180 0 291.5 148.5t111.5 416.5q0 311 -125 466.5t-348 155.5zM1411 674q0 -307 -181 -500.5t-474 -193.5q-272 0 -461 180t-189 475q0 301 186.5 507t461.5 206q281 0 469 -187.5t188 -486.5z
M793 1679q88 -41 127 -106l-295 -119q-57 -25 -86 -24q-31 0 -31 30q0 23 31 43z" />
    <glyph glyph-name="Ocircumflex" unicode="&#xd4;" horiz-adv-x="1517" 
d="M795 1649q84 -100 206 -193l-32 -43q-127 59 -217 127q-102 -76 -220 -127l-28 43q88 66 203 193h88zM727 1257q-168 0 -289 -144t-121 -443q0 -281 141.5 -440.5t338.5 -159.5q180 0 291.5 148.5t111.5 416.5q0 311 -125 466.5t-348 155.5zM1411 674q0 -307 -181 -500.5
t-474 -193.5q-272 0 -461 180t-189 475q0 301 186.5 507t461.5 206q281 0 469 -187.5t188 -486.5z" />
    <glyph glyph-name="Otilde" unicode="&#xd5;" horiz-adv-x="1517" 
d="M870 1520q35 0 58.5 22.5t44.5 83.5l49 -12q-37 -184 -178 -184q-51 0 -131 53q-74 45 -111 45q-39 0 -61.5 -23.5t-38.5 -74.5l-49 10q23 92 60.5 137t103 45t147.5 -57q59 -45 106 -45zM727 1257q-168 0 -289 -144t-121 -443q0 -281 141.5 -440.5t338.5 -159.5
q180 0 291.5 148.5t111.5 416.5q0 311 -125 466.5t-348 155.5zM1411 674q0 -307 -181 -500.5t-474 -193.5q-272 0 -461 180t-189 475q0 301 186.5 507t461.5 206q281 0 469 -187.5t188 -486.5z" />
    <glyph glyph-name="Odieresis" unicode="&#xd6;" horiz-adv-x="1517" 
d="M193 1452q0 39 27.5 65.5t66.5 26.5t65.5 -26.5t26.5 -65.5t-26.5 -65.5t-65.5 -26.5t-66.5 26.5t-27.5 65.5zM1141 1452q0 39 26.5 65.5t65.5 26.5t65.5 -26.5t26.5 -65.5t-26.5 -65.5t-65.5 -26.5t-65.5 26.5t-26.5 65.5zM727 1257q-168 0 -289 -144t-121 -443
q0 -281 141.5 -440.5t338.5 -159.5q180 0 291.5 148.5t111.5 416.5q0 311 -125 466.5t-348 155.5zM1411 674q0 -307 -181 -500.5t-474 -193.5q-272 0 -461 180t-189 475q0 301 186.5 507t461.5 206q281 0 469 -187.5t188 -486.5z" />
    <glyph glyph-name="multiply" unicode="&#xd7;" horiz-adv-x="1079" 
d="M610 471l252 -250l-71 -71l-250 249l-250 -249l-74 71l252 250l-252 252l74 72l250 -252l250 252l71 -72z" />
    <glyph glyph-name="Oslash" unicode="&#xd8;" horiz-adv-x="1517" 
d="M221 -27q-27 0 -48 20.5t-26 45.5l121 149q-162 180 -162 447q0 301 186.5 507t461.5 206q208 0 370 -107l86 107q29 0 49.5 -18.5t24.5 -43.5l-84 -104q211 -191 211 -508q0 -307 -181 -500.5t-474 -193.5q-240 0 -416 140zM727 1257q-168 0 -289 -144t-121 -443
q0 -191 72 -334l653 804q-119 117 -315 117zM1103 1062l-659 -814q67 -87 159 -132.5t194 -45.5q180 0 291.5 148.5t111.5 416.5q0 270 -97 427z" />
    <glyph glyph-name="Ugrave" unicode="&#xd9;" horiz-adv-x="1417" 
d="M1114 911q0 264 -20 410l4 6q37 -6 71.5 -6t71.5 6l4 -6q-20 -135 -20 -410v-307q0 -299 -120 -461.5t-415 -162.5q-80 0 -154.5 21.5t-151.5 72.5t-124 156.5t-47 252.5v428q0 264 -20 410l4 6q37 -6 104.5 -6t104.5 6l4 -6q-20 -135 -21 -410v-360q0 -457 344 -457
q100 0 172 29t112 71t62.5 109.5t28.5 125.5t6 138v344zM688 1675l248 -172q31 -23 31 -43q0 -12 -9.5 -21t-21.5 -9q-31 0 -88 24l-316 129q64 61 156 92z" />
    <glyph glyph-name="Uacute" unicode="&#xda;" horiz-adv-x="1417" 
d="M1114 911q0 264 -20 410l4 6q37 -6 71.5 -6t71.5 6l4 -6q-20 -135 -20 -410v-307q0 -299 -120 -461.5t-415 -162.5q-80 0 -154.5 21.5t-151.5 72.5t-124 156.5t-47 252.5v428q0 264 -20 410l4 6q37 -6 104.5 -6t104.5 6l4 -6q-20 -135 -21 -410v-360q0 -457 344 -457
q100 0 172 29t112 71t62.5 109.5t28.5 125.5t6 138v344zM870 1677q88 -41 127 -106l-295 -119q-57 -25 -86 -25q-31 0 -30 31q0 23 30 43z" />
    <glyph glyph-name="Ucircumflex" unicode="&#xdb;" horiz-adv-x="1417" 
d="M1114 911q0 264 -20 410l4 6q37 -6 71.5 -6t71.5 6l4 -6q-20 -135 -20 -410v-307q0 -299 -120 -461.5t-415 -162.5q-80 0 -154.5 21.5t-151.5 72.5t-124 156.5t-47 252.5v428q0 264 -20 410l4 6q37 -6 104.5 -6t104.5 6l4 -6q-20 -135 -21 -410v-360q0 -457 344 -457
q100 0 172 29t112 71t62.5 109.5t28.5 125.5t6 138v344zM819 1649q84 -100 207 -193l-33 -43q-127 59 -217 127q-102 -76 -219 -127l-29 43q88 66 203 193h88z" />
    <glyph glyph-name="Udieresis" unicode="&#xdc;" horiz-adv-x="1417" 
d="M492 1452q0 39 26.5 65.5t65.5 26.5t65.5 -26.5t26.5 -65.5t-26.5 -65.5t-65.5 -26.5t-65.5 26.5t-26.5 65.5zM848 1452q0 39 26.5 65.5t65.5 26.5t65.5 -26.5t26.5 -65.5t-26.5 -65.5t-65.5 -26.5t-65.5 26.5t-26.5 65.5zM1114 911q0 264 -20 410l4 6q37 -6 71.5 -6
t71.5 6l4 -6q-20 -135 -20 -410v-307q0 -299 -120 -461.5t-415 -162.5q-80 0 -154.5 21.5t-151.5 72.5t-124 156.5t-47 252.5v428q0 264 -20 410l4 6q37 -6 104.5 -6t104.5 6l4 -6q-20 -135 -21 -410v-360q0 -457 344 -457q100 0 172 29t112 71t62.5 109.5t28.5 125.5t6 138
v344z" />
    <glyph glyph-name="Yacute" unicode="&#xdd;" horiz-adv-x="1177" 
d="M682 584q4 -475 14 -590q-37 6 -102.5 6t-101.5 -6q14 158 14 569q-61 104 -237.5 390t-235.5 374q51 -6 117 -6q63 0 116 6q49 -96 359 -631q229 360 358 631q37 -6 86 -6q45 0 86 6q-63 -98 -161.5 -246.5t-140.5 -213t-91 -144.5t-80 -139zM737 1679q88 -41 127 -106
l-295 -119q-57 -25 -86 -24q-31 0 -30 30q0 23 30 43z" />
    <glyph glyph-name="Thorn" unicode="&#xde;" horiz-adv-x="1116" 
d="M213 911q0 264 -20 410l4 6q37 -6 104.5 -6t104.5 6l4 -6q-14 -93 -19 -247q71 4 178 3q133 0 230.5 -36.5t143.5 -97t66.5 -120t20.5 -121.5q0 -49 -15.5 -101t-52 -106.5t-91 -96.5t-140.5 -69.5t-190 -27.5q-107 0 -151 13q3 -192 20 -314l-4 -6q-37 6 -105 6t-104 -6
l-4 6q20 139 20 410v501zM389 394q16 -4 52 -6.5t89 -2.5q299 0 299 317q0 291 -262 291q-96 0 -178 -21v-61v-501v-16z" />
    <glyph glyph-name="germandbls" unicode="&#xdf;" horiz-adv-x="1110" 
d="M688 -20q-68 0 -133.5 21.5t-89.5 35.5l-2 6q14 25 39 119l22 2q18 -35 70.5 -72t93.5 -37q164 0 164 205q0 27 -10.5 59.5t-36 74.5t-83.5 70t-140 28q-6 0 -27 -5l-8 37q213 285 213 328q0 16 -57.5 27.5t-110.5 11.5q-137 0 -206 -83t-69 -284v-153q0 -233 21 -371
l-4 -6q-31 6 -101 6l-102 -6l-2 6q20 129 21 367v120q0 231 106 353.5t365 122.5q70 0 174 -15.5t166 -36.5v-32l-222 -320q-6 -6 -6 -14t10 -8q131 -6 206 -83t75 -187.5t-97.5 -198.5t-238.5 -88z" />
    <glyph glyph-name="agrave" unicode="&#xe0;" 
d="M532 1376l144 -258q12 -25 12 -49q0 -8 -9 -15t-22 -7q-16 0 -59 40l-233 224l4 22q63 47 133 47q14 0 30 -4zM300 326q-87 -214 -118 -330q-18 4 -67 4q-63 0 -82 -4q227 494 434 975h117q49 -117 141 -347.5t160.5 -396.5t101.5 -231q-25 4 -131 4q-49 0 -74 -4
q-36 127 -111 330q-40 1 -60.5 1.5t-55 1.5t-61.5 1q-37 0 -94 -1t-100 -3zM641 407q-20 53 -43 109t-50 121t-56 133h-5q-15 -36 -46 -108.5t-58 -135.5t-50 -118q21 0 76 -2.5t78 -2.5q31 0 73.5 1.5t80.5 2.5z" />
    <glyph glyph-name="aacute" unicode="&#xe1;" 
d="M557 1364q12 4 29 4q63 0 112 -47l7 -23l-236 -223q-39 -39 -61 -39q-10 0 -19.5 8.5t-9.5 18.5q0 20 23 57zM300 326q-87 -214 -118 -330q-18 4 -67 4q-63 0 -82 -4q227 494 434 975h117q49 -117 141 -347.5t160.5 -396.5t101.5 -231q-25 4 -131 4q-49 0 -74 -4
q-36 127 -111 330q-40 1 -60.5 1.5t-55 1.5t-61.5 1q-37 0 -94 -1t-100 -3zM641 407q-20 53 -43 109t-50 121t-56 133h-5q-15 -36 -46 -108.5t-58 -135.5t-50 -118q21 0 76 -2.5t78 -2.5q31 0 73.5 1.5t80.5 2.5z" />
    <glyph glyph-name="acircumflex" unicode="&#xe2;" 
d="M575 1333q68 -109 207 -264l-43 -29q-145 106 -217 185q-90 -92 -219 -185l-41 29q147 164 211 264h102zM300 326q-87 -214 -118 -330q-18 4 -67 4q-63 0 -82 -4q227 494 434 975h117q49 -117 141 -347.5t160.5 -396.5t101.5 -231q-25 4 -131 4q-49 0 -74 -4
q-36 127 -111 330q-40 1 -60.5 1.5t-55 1.5t-61.5 1q-37 0 -94 -1t-100 -3zM641 407q-20 53 -43 109t-50 121t-56 133h-5q-15 -36 -46 -108.5t-58 -135.5t-50 -118q21 0 76 -2.5t78 -2.5q31 0 73.5 1.5t80.5 2.5z" />
    <glyph glyph-name="atilde" unicode="&#xe3;" 
d="M662 1169q35 0 58 22.5t44 84.5l49 -12q-37 -184 -178 -185q-51 0 -131 54q-74 45 -111 45q-39 0 -61.5 -24t-38.5 -75l-49 11q23 92 60.5 137t103 45t147.5 -58q60 -45 107 -45zM300 326q-87 -214 -118 -330q-18 4 -67 4q-63 0 -82 -4q227 494 434 975h117
q49 -117 141 -347.5t160.5 -396.5t101.5 -231q-25 4 -131 4q-49 0 -74 -4q-36 127 -111 330q-40 1 -60.5 1.5t-55 1.5t-61.5 1q-37 0 -94 -1t-100 -3zM641 407q-20 53 -43 109t-50 121t-56 133h-5q-15 -36 -46 -108.5t-58 -135.5t-50 -118q21 0 76 -2.5t78 -2.5
q31 0 73.5 1.5t80.5 2.5z" />
    <glyph glyph-name="adieresis" unicode="&#xe4;" 
d="M260 1171q0 41 28.5 70t67.5 29t68 -29t29 -70t-28 -68.5t-69 -27.5t-68.5 27.5t-27.5 68.5zM606 1171q0 41 29 70t67.5 29t67.5 -29t29 -70t-29 -68.5t-67.5 -27.5t-67.5 27.5t-29 68.5zM300 326q-87 -214 -118 -330q-18 4 -67 4q-63 0 -82 -4q227 494 434 975h117
q49 -117 141 -347.5t160.5 -396.5t101.5 -231q-25 4 -131 4q-49 0 -74 -4q-36 127 -111 330q-40 1 -60.5 1.5t-55 1.5t-61.5 1q-37 0 -94 -1t-100 -3zM641 407q-20 53 -43 109t-50 121t-56 133h-5q-15 -36 -46 -108.5t-58 -135.5t-50 -118q21 0 76 -2.5t78 -2.5
q31 0 73.5 1.5t80.5 2.5z" />
    <glyph glyph-name="aring" unicode="&#xe5;" 
d="M522 1305q-47 0 -74.5 -34t-27.5 -81q0 -45 28.5 -80t73.5 -35t74 35t29 80q0 49 -29 82t-74 33zM344 1190q0 70 53.5 120t125 50t124.5 -49t53 -121q0 -70 -52 -120t-126 -50q-72 0 -125 50t-53 120zM300 326q-87 -214 -118 -330q-18 4 -67 4q-63 0 -82 -4
q227 494 434 975h117q49 -117 141 -347.5t160.5 -396.5t101.5 -231q-25 4 -131 4q-49 0 -74 -4q-36 127 -111 330q-40 1 -60.5 1.5t-55 1.5t-61.5 1q-37 0 -94 -1t-100 -3zM641 407q-20 53 -43 109t-50 121t-56 133h-5q-15 -36 -46 -108.5t-58 -135.5t-50 -118q21 0 76 -2.5
t78 -2.5q31 0 73.5 1.5t80.5 2.5z" />
    <glyph glyph-name="ae" unicode="&#xe6;" horiz-adv-x="1472" 
d="M680 367v82h-269q-142 -325 -190 -453q-18 4 -67 4q-63 0 -82 -4q213 406 448 950q84 -4 246 -4h416q74 0 123 6l4 -6q-4 -57 -4 -63q0 -10 4 -43l-4 -9q-166 25 -441 25q-16 -55 -16 -279v-38q111 0 162 2t97 9t81 9l6 -6q-6 -29 -6 -57.5t6 -57.5l-6 -6
q-203 20 -340 21v-80q0 -213 16 -269q123 0 238 6.5t169 12.5l54 6l4 -8q-4 -33 -4 -64q0 -8 1 -15t2 -17.5t1 -20.5l-4 -6q-49 6 -123 6h-436l-104 -6l-3 6q21 123 21 367zM448 535h232v266q0 43 -11.5 57t-33.5 14q-39 0 -70 -67q-29 -68 -117 -270z" />
    <glyph glyph-name="ccedilla" unicode="&#xe7;" horiz-adv-x="1032" 
d="M571 -197q-53 0 -92 -12l-12 12l74 179q-205 17 -328 156.5t-123 316.5q0 221 142.5 364.5t353.5 143.5q55 0 103 -5.5t78 -10.5t61.5 -16t44 -17.5t38 -20.5t31.5 -16l4 -7l-47 -168l-27 -2q-25 43 -45 71t-53 58.5t-79 46t-103 15.5q-322 0 -322 -416q0 -111 29 -200
t106.5 -152.5t194.5 -63.5q100 0 163.5 35t137.5 121l43 -51q-70 -94 -147 -137.5t-186 -46.5l-44 -117q25 6 54 6q63 0 104 -35t41 -92q0 -66 -62.5 -109t-156.5 -43q-72 0 -152 35q0 33 21 53q78 -29 119 -28q47 0 75.5 21.5t28.5 60.5q0 71 -68 71z" />
    <glyph glyph-name="egrave" unicode="&#xe8;" horiz-adv-x="964" 
d="M262 942h416q74 0 123 6l4 -6q-4 -57 -4 -63q0 -10 4 -43l-4 -9q-170 25 -445 25q-16 -55 -16 -279v-38q111 0 163 2t100 9t81 9l6 -6q-6 -29 -6 -57.5t6 -57.5l-6 -6q-203 20 -344 21v-80q0 -213 16 -269q123 0 239 6.5t171 12.5l55 6l4 -8q-4 -33 -4 -64q0 -8 1 -15
t2 -17.5t1 -20.5l-4 -6q-49 6 -123 6h-436l-104 -6l-2 6q20 123 20 367v208q0 244 -20 367l2 6q32 -6 104 -6zM469 1397l143 -258q12 -25 13 -49q0 -8 -9.5 -15.5t-21.5 -7.5q-16 0 -59 41l-234 223l4 23q63 47 133 47q15 0 31 -4z" />
    <glyph glyph-name="eacute" unicode="&#xe9;" horiz-adv-x="964" 
d="M262 942h416q74 0 123 6l4 -6q-4 -57 -4 -63q0 -10 4 -43l-4 -9q-170 25 -445 25q-16 -55 -16 -279v-38q111 0 163 2t100 9t81 9l6 -6q-6 -29 -6 -57.5t6 -57.5l-6 -6q-203 20 -344 21v-80q0 -213 16 -269q123 0 239 6.5t171 12.5l55 6l4 -8q-4 -33 -4 -64q0 -8 1 -15
t2 -17.5t1 -20.5l-4 -6q-49 6 -123 6h-436l-104 -6l-2 6q20 123 20 367v208q0 244 -20 367l2 6q32 -6 104 -6zM530 1358q12 4 29 4q63 0 113 -47l6 -23l-236 -223q-39 -39 -61 -39q-10 0 -19.5 8.5t-9.5 18.5q0 20 24 57z" />
    <glyph glyph-name="ecircumflex" unicode="&#xea;" horiz-adv-x="964" 
d="M262 942h416q74 0 123 6l4 -6q-4 -57 -4 -63q0 -10 4 -43l-4 -9q-170 25 -445 25q-16 -55 -16 -279v-38q111 0 163 2t100 9t81 9l6 -6q-6 -29 -6 -57.5t6 -57.5l-6 -6q-203 20 -344 21v-80q0 -213 16 -269q123 0 239 6.5t171 12.5l55 6l4 -8q-4 -33 -4 -64q0 -8 1 -15
t2 -17.5t1 -20.5l-4 -6q-49 6 -123 6h-436l-104 -6l-2 6q20 123 20 367v208q0 244 -20 367l2 6q32 -6 104 -6zM553 1331q68 -109 207 -264l-43 -29q-145 106 -217 185q-90 -92 -219 -185l-41 29q147 164 211 264h102z" />
    <glyph glyph-name="edieresis" unicode="&#xeb;" horiz-adv-x="964" 
d="M262 942h416q74 0 123 6l4 -6q-4 -57 -4 -63q0 -10 4 -43l-4 -9q-170 25 -445 25q-16 -55 -16 -279v-38q111 0 163 2t100 9t81 9l6 -6q-6 -29 -6 -57.5t6 -57.5l-6 -6q-203 20 -344 21v-80q0 -213 16 -269q123 0 239 6.5t171 12.5l55 6l4 -8q-4 -33 -4 -64q0 -8 1 -15
t2 -17.5t1 -20.5l-4 -6q-49 6 -123 6h-436l-104 -6l-2 6q20 123 20 367v208q0 244 -20 367l2 6q32 -6 104 -6zM236 1176q0 41 28.5 69.5t67.5 28.5t67.5 -28.5t28.5 -69.5t-27.5 -69t-68.5 -28t-68.5 28t-27.5 69zM582 1176q0 41 28.5 69.5t67.5 28.5t67.5 -28.5t28.5 -69.5
t-28.5 -69t-67.5 -28t-67.5 28t-28.5 69z" />
    <glyph glyph-name="igrave" unicode="&#xec;" horiz-adv-x="512" 
d="M174 575q0 244 -20 367l2 6q29 -6 100 -6l98 6l4 -6q-20 -156 -20 -367v-208q0 -238 20 -367l-4 -6q-29 6 -98 6l-100 -6l-2 6q20 123 20 367v208zM229 1362l144 -258q12 -25 12 -49q0 -8 -9 -15.5t-22 -7.5q-16 0 -59 41l-234 223l5 23q63 47 133 47q14 0 30 -4z" />
    <glyph glyph-name="iacute" unicode="&#xed;" horiz-adv-x="512" 
d="M174 575q0 244 -20 367l2 6q29 -6 100 -6l98 6l4 -6q-20 -156 -20 -367v-208q0 -238 20 -367l-4 -6q-29 6 -98 6l-100 -6l-2 6q20 123 20 367v208zM354 1358q12 4 29 4q63 0 113 -47l6 -23l-236 -223q-39 -39 -61 -39q-10 0 -19.5 8.5t-9.5 18.5q0 20 23 57z" />
    <glyph glyph-name="icircumflex" unicode="&#xee;" horiz-adv-x="512" 
d="M174 575q0 244 -20 367l2 6q29 -6 100 -6l98 6l4 -6q-20 -156 -20 -367v-208q0 -238 20 -367l-4 -6q-29 6 -98 6l-100 -6l-2 6q20 123 20 367v208zM340 1333q68 -109 207 -264l-43 -29q-145 106 -217 185q-90 -92 -219 -185l-41 29q147 164 211 264h102z" />
    <glyph glyph-name="idieresis" unicode="&#xef;" horiz-adv-x="512" 
d="M174 575q0 244 -20 367l2 6q29 -6 100 -6l98 6l4 -6q-20 -156 -20 -367v-208q0 -238 20 -367l-4 -6q-29 6 -98 6l-100 -6l-2 6q20 123 20 367v208zM-12 1176q0 41 28.5 69.5t67.5 28.5t67.5 -28.5t28.5 -69.5t-28.5 -69t-67.5 -28t-67.5 28t-28.5 69zM334 1176
q0 41 28.5 69.5t67.5 28.5t67.5 -28.5t28.5 -69.5t-27.5 -69t-68.5 -28t-68.5 28t-27.5 69z" />
    <glyph glyph-name="eth" unicode="&#xf0;" horiz-adv-x="1159" 
d="M489 506v-80h-149v-260q0 -49 33 -70.5t141 -21.5q182 0 268 74.5t86 277.5q0 84 -20.5 160t-63.5 141.5t-122.5 104t-186.5 38.5q-135 0 -135 -67v-297h149zM258 942q39 0 101.5 2t107.5 3t68 1q227 0 368 -139t141 -348q0 -129 -41.5 -223.5t-114.5 -144.5t-153 -73.5
t-172 -23.5q-96 0 -194.5 2t-110.5 2l-100 -6l-2 6q20 123 20 367v59h-115v80h115v69q0 244 -20 367l2 6q28 -6 100 -6z" />
    <glyph glyph-name="ntilde" unicode="&#xf1;" horiz-adv-x="1118" 
d="M707 1169q35 0 58 22.5t44 84.5l49 -12q-37 -184 -178 -185q-51 0 -131 54q-74 45 -111 45q-39 0 -61.5 -24t-38.5 -75l-49 11q23 92 60.5 137t103 45t147.5 -58q60 -45 107 -45zM168 649q0 195 -14 293l2 4q27 -4 77 -4l72 4l500 -649q32 -39 39 -24q4 8 4 28v348
q0 195 -14 293l4 4q16 -4 53 -4l74 4v-4q-14 -109 -15 -293v-618q0 -20 -18.5 -35.5t-34.5 -15.5q-41 0 -74 40l-510 646q-43 55 -43 -25v-348q0 -195 15 -293l-2 -6q-25 6 -60 6l-67 -6l-2 6q14 90 14 293v356z" />
    <glyph glyph-name="ograve" unicode="&#xf2;" horiz-adv-x="1167" 
d="M567 881q-125 0 -211 -104.5t-86 -301.5q0 -188 90.5 -302t239.5 -114q139 0 218 101.5t79 288.5q0 201 -94.5 316.5t-235.5 115.5zM1077 477q0 -211 -133 -354t-375 -143q-209 0 -344 132t-135 339q0 225 140.5 368.5t355.5 143.5q205 0 348 -136.5t143 -349.5z
M543 1368l143 -258q12 -25 12 -49q0 -8 -9 -15.5t-21 -7.5q-16 0 -60 41l-233 224l4 22q63 47 133 47q15 0 31 -4z" />
    <glyph glyph-name="oacute" unicode="&#xf3;" horiz-adv-x="1167" 
d="M567 881q-125 0 -211 -104.5t-86 -301.5q0 -188 90.5 -302t239.5 -114q139 0 218 101.5t79 288.5q0 201 -94.5 316.5t-235.5 115.5zM1077 477q0 -211 -133 -354t-375 -143q-209 0 -344 132t-135 339q0 225 140.5 368.5t355.5 143.5q205 0 348 -136.5t143 -349.5z
M633 1358q12 4 29 4q63 0 112 -47l6 -23l-235 -223q-39 -39 -62 -39q-10 0 -19 8.5t-9 18.5q0 20 23 57z" />
    <glyph glyph-name="ocircumflex" unicode="&#xf4;" horiz-adv-x="1167" 
d="M567 881q-125 0 -211 -104.5t-86 -301.5q0 -188 90.5 -302t239.5 -114q139 0 218 101.5t79 288.5q0 201 -94.5 316.5t-235.5 115.5zM1077 477q0 -211 -133 -354t-375 -143q-209 0 -344 132t-135 339q0 225 140.5 368.5t355.5 143.5q205 0 348 -136.5t143 -349.5z
M631 1325q68 -109 207 -264l-43 -29q-145 106 -217 185q-90 -92 -220 -185l-41 29q147 164 211 264h103z" />
    <glyph glyph-name="otilde" unicode="&#xf5;" horiz-adv-x="1167" 
d="M567 881q-125 0 -211 -104.5t-86 -301.5q0 -188 90.5 -302t239.5 -114q139 0 218 101.5t79 288.5q0 201 -94.5 316.5t-235.5 115.5zM1077 477q0 -211 -133 -354t-375 -143q-209 0 -344 132t-135 339q0 225 140.5 368.5t355.5 143.5q205 0 348 -136.5t143 -349.5z
M694 1169q35 0 58.5 22.5t44.5 84.5l49 -12q-37 -184 -178 -185q-51 0 -131 54q-74 45 -111 45q-39 0 -61.5 -24t-38.5 -75l-50 11q23 92 61 137t103.5 45t147.5 -58q59 -45 106 -45z" />
    <glyph glyph-name="odieresis" unicode="&#xf6;" horiz-adv-x="1167" 
d="M567 881q-125 0 -211 -104.5t-86 -301.5q0 -188 90.5 -302t239.5 -114q139 0 218 101.5t79 288.5q0 201 -94.5 316.5t-235.5 115.5zM1077 477q0 -211 -133 -354t-375 -143q-209 0 -344 132t-135 339q0 225 140.5 368.5t355.5 143.5q205 0 348 -136.5t143 -349.5z
M309 1171q0 41 29 70t67.5 29t67.5 -29t29 -70t-28 -68.5t-68.5 -27.5t-68.5 27.5t-28 68.5zM655 1171q0 41 29 70t68 29t67.5 -29t28.5 -70t-28.5 -68.5t-67.5 -27.5t-68 27.5t-29 68.5z" />
    <glyph glyph-name="divide" unicode="&#xf7;" horiz-adv-x="1079" 
d="M447 751v7q12 35 33 56t60 37h7q70 -26 92 -93v-7q-9 -28 -21 -46t-29.5 -29t-41.5 -17h-7q-40 9 -61 29t-32 63zM447 203v6q23 64 93 93h7q38 -14 59 -35t33 -58v-6q-9 -28 -21 -46.5t-29.5 -29.5t-41.5 -17h-7q-40 9 -61 29.5t-32 63.5zM944 526v-100h-809v100h809z
" />
    <glyph glyph-name="oslash" unicode="&#xf8;" horiz-adv-x="1167" 
d="M567 881q-125 0 -211 -104.5t-86 -301.5q0 -167 73 -278l428 603q-42 40 -94 60.5t-110 20.5zM1077 477q0 -211 -133 -354t-375 -143q-138 0 -250 61l-96 -135l-59 39l96 136q-170 134 -170 370q0 225 140.5 368.5t355.5 143.5q138 0 253 -66l81 113l59 -39l-81 -114
q84 -66 131.5 -163.5t47.5 -216.5zM818 744l-428 -603q85 -81 210 -82q139 0 218 101.5t79 288.5q0 90 -20.5 164.5t-58.5 130.5z" />
    <glyph glyph-name="ugrave" unicode="&#xf9;" horiz-adv-x="1128" 
d="M956 573v-114q0 -236 -87 -357.5t-318 -121.5q-57 0 -118.5 20t-121 62t-97.5 123t-38 186v202q0 246 -20 369l2 6q31 -6 102 -6l100 6l5 -6q-20 -129 -21 -369v-159q0 -66 4 -112t18.5 -95t40 -80t70.5 -50.5t109 -19.5q74 0 126 23.5t79.5 56.5t42 89.5t17.5 98.5
t3 107v141q0 246 -20 369l2 6q49 -6 69 -6l68 6l4 -6q-21 -129 -21 -369zM549 1368l143 -258q12 -25 13 -49q0 -8 -9.5 -15.5t-21.5 -7.5q-16 0 -60 41l-233 224l4 22q63 47 133 47q15 0 31 -4z" />
    <glyph glyph-name="uacute" unicode="&#xfa;" horiz-adv-x="1128" 
d="M956 573v-114q0 -236 -87 -357.5t-318 -121.5q-57 0 -118.5 20t-121 62t-97.5 123t-38 186v202q0 246 -20 369l2 6q31 -6 102 -6l100 6l5 -6q-20 -129 -21 -369v-159q0 -66 4 -112t18.5 -95t40 -80t70.5 -50.5t109 -19.5q74 0 126 23.5t79.5 56.5t42 89.5t17.5 98.5
t3 107v141q0 246 -20 369l2 6q49 -6 69 -6l68 6l4 -6q-21 -129 -21 -369zM702 1358q12 4 29 4q63 0 113 -47l6 -23l-236 -223q-39 -39 -61 -39q-10 0 -19.5 8.5t-9.5 18.5q0 20 24 57z" />
    <glyph glyph-name="ucircumflex" unicode="&#xfb;" horiz-adv-x="1128" 
d="M956 573v-114q0 -236 -87 -357.5t-318 -121.5q-57 0 -118.5 20t-121 62t-97.5 123t-38 186v202q0 246 -20 369l2 6q31 -6 102 -6l100 6l5 -6q-20 -129 -21 -369v-159q0 -66 4 -112t18.5 -95t40 -80t70.5 -50.5t109 -19.5q74 0 126 23.5t79.5 56.5t42 89.5t17.5 98.5
t3 107v141q0 246 -20 369l2 6q49 -6 69 -6l68 6l4 -6q-21 -129 -21 -369zM662 1323q68 -109 206 -264l-43 -29q-145 106 -217 184q-90 -92 -219 -184l-41 29q147 164 211 264h103z" />
    <glyph glyph-name="udieresis" unicode="&#xfc;" horiz-adv-x="1128" 
d="M956 573v-114q0 -236 -87 -357.5t-318 -121.5q-57 0 -118.5 20t-121 62t-97.5 123t-38 186v202q0 246 -20 369l2 6q31 -6 102 -6l100 6l5 -6q-20 -129 -21 -369v-159q0 -66 4 -112t18.5 -95t40 -80t70.5 -50.5t109 -19.5q74 0 126 23.5t79.5 56.5t42 89.5t17.5 98.5
t3 107v141q0 246 -20 369l2 6q49 -6 69 -6l68 6l4 -6q-21 -129 -21 -369zM332 1176q0 41 28.5 69.5t67.5 28.5t67.5 -28.5t28.5 -69.5t-28.5 -69t-67.5 -28t-67.5 28t-28.5 69zM678 1176q0 41 28.5 69.5t67.5 28.5t67.5 -28.5t28.5 -69.5t-27.5 -69t-68.5 -28t-68.5 28
t-27.5 69z" />
    <glyph glyph-name="yacute" unicode="&#xfd;" horiz-adv-x="915" 
d="M532 1370q12 4 29 4q63 0 113 -47l6 -22l-236 -224q-39 -39 -61 -39q-10 0 -19.5 8.5t-9.5 18.5q0 20 24 57zM535 416q1 -128 4 -251t8 -171q-35 6 -88 6q-51 0 -88 -6q10 92 10 407q-217 371 -336 547q39 -6 96 -6q59 0 97 6q41 -81 243 -430q155 247 242 430
q29 -6 74 -6q47 0 73 6q-35 -53 -81 -123.5t-71.5 -109.5t-57.5 -88.5t-51.5 -81.5t-39.5 -66.5t-34 -62.5z" />
    <glyph glyph-name="thorn" unicode="&#xfe;" horiz-adv-x="921" 
d="M160 575q0 244 -21 367l2 6q29 -6 101 -6l98 6l4 -6q-2 -16 -4 -31.5t-3.5 -30.5t-3 -29t-2.5 -28.5l-2 -29t-2 -29.5q99 4 146 4q109 0 186.5 -27.5t113.5 -73.5t50.5 -89t14.5 -90.5t-19.5 -94.5t-61.5 -93t-122 -75.5t-184 -29.5q-46 0 -76.5 1.5t-49.5 7.5
q4 -110 19 -204l-4 -6q-29 6 -98 6l-101 -6l-2 6q20 123 21 367v208zM324 274q23 -7 118 -8q117 0 169.5 51.5t52.5 171.5q0 111 -46.5 158t-146.5 47h-12t-15 -0.5t-16.5 -1.5t-18 -2l-19 -2t-18.5 -2t-17.5 -2.5t-16 -2.5t-14.5 -2v-48v-56v-208v-93z" />
    <glyph glyph-name="ydieresis" unicode="&#xff;" horiz-adv-x="915" 
d="M221 1171q0 41 29 70t67.5 29t67.5 -29t29 -70t-29 -68.5t-67.5 -27.5t-67.5 27.5t-29 68.5zM567 1171q0 41 29 70t67.5 29t67.5 -29t29 -70t-27.5 -68.5t-68.5 -27.5t-69 27.5t-28 68.5zM535 416q1 -128 4 -251t8 -171q-35 6 -88 6q-51 0 -88 -6q10 92 10 407
q-217 371 -336 547q39 -6 96 -6q59 0 97 6q41 -81 243 -430q155 247 242 430q29 -6 74 -6q47 0 73 6q-35 -53 -81 -123.5t-71.5 -109.5t-57.5 -88.5t-51.5 -81.5t-39.5 -66.5t-34 -62.5z" />
    <glyph glyph-name="Iogonek" unicode="&#x12e;" horiz-adv-x="602" 
d="M188 -461q-84 0 -137 46t-53 128q0 72 55 151t143 130l-3 6q20 139 20 410v501q0 264 -20 410l4 6q37 -6 104.5 -6t104.5 6l4 -6q-20 -135 -21 -410v-501q0 -264 21 -410l-4 -6q-14 2 -30 3q-72 -6 -132.5 -49.5t-91.5 -100t-31 -107.5t32.5 -86t86.5 -35q76 0 143 74
l31 -17q-35 -68 -100 -102.5t-126 -34.5z" />
    <glyph glyph-name="obreve" unicode="&#x14f;" 
d="M289 1321q16 -82 77.5 -133t143.5 -51t144.5 49t76.5 135l55 -25q-18 -127 -99 -201.5t-177 -74.5q-109 0 -182.5 72.5t-94.5 203.5zM78 420q0 217 120.5 348t321.5 131q205 0 315.5 -124t110.5 -337q0 -205 -116.5 -331.5t-317.5 -126.5q-199 0 -316.5 125t-117.5 315z
M506 817q-90 0 -148.5 -55t-79 -132t-20.5 -175q0 -92 20.5 -174t86 -151t165.5 -69q102 0 169 96.5t67 243.5q0 207 -54 311.5t-206 104.5z" />
    <glyph glyph-name="Ohungarumlaut" unicode="&#x150;" horiz-adv-x="1517" 
d="M1040 1622q0 -27 -14 -41l-203 -172q-6 -6 -16 -6q-8 0 -17.5 7t-9.5 20q0 5 2 10t6 12l121 223q16 25 47 25q41 0 62.5 -24.5t21.5 -53.5zM772 1632q0 -27 -14 -39l-180 -165q-17 -15 -29 -15q-27 0 -27 25q0 12 5 22l112 226q16 25 55 24q27 0 52.5 -22.5t25.5 -55.5z
M727 1257q-168 0 -289 -144t-121 -443q0 -281 141.5 -440.5t338.5 -159.5q180 0 291.5 148.5t111.5 416.5q0 311 -125 466.5t-348 155.5zM1411 674q0 -307 -181 -500.5t-474 -193.5q-272 0 -461 180t-189 475q0 301 186.5 507t461.5 206q281 0 469 -187.5t188 -486.5z" />
    <glyph glyph-name="OE" unicode="&#x152;" horiz-adv-x="1716" 
d="M713 76h26q59 0 82 18.5t23 63.5v1007q0 47 -21.5 61.5t-83.5 14.5h-71q-166 0 -268.5 -133t-102.5 -438q0 -297 121 -445.5t295 -148.5zM932 0q-215 -2 -215 -4q-285 2 -458 187.5t-173 467.5q0 287 165 479.5t443 192.5q145 -2 238 -2h538q74 0 123 6l4 -6
q-4 -57 -4 -64q0 -20 4 -53l-4 -8q-283 25 -557 25q-16 -55 -16 -310v-168q215 0 457 21l6 -6q-6 -29 -6 -57.5t6 -57.5l-6 -6q-203 20 -457 20v-247q0 -244 16 -299q123 0 267.5 6t227.5 12l83 6l4 -8q-4 -33 -4 -68q0 -2 4 -59l-4 -6q-49 6 -123 6h-559z" />
    <glyph glyph-name="oe" unicode="&#x153;" horiz-adv-x="1484" 
d="M604 55q51 0 69.5 15.5t18.5 52.5v700q0 43 -32.5 54.5t-108.5 11.5q-129 0 -220 -107.5t-91 -322.5q0 -203 99 -303.5t265 -100.5zM778 942h416q74 0 123 6l4 -6q-4 -57 -4 -63q0 -10 4 -43l-4 -9q-166 25 -440 25q-16 -55 -17 -279v-38q111 0 162 2t97 9t81 9l6 -6
q-6 -29 -6 -57.5t6 -57.5l-6 -6q-203 20 -340 21v-80q0 -213 17 -269q123 0 237.5 6.5t168.5 12.5l54 6l4 -8q-4 -33 -4 -64q0 -8 1 -15t2 -17.5t1 -20.5l-4 -6q-49 6 -123 6h-436q-45 0 -118.5 -3t-86.5 -3q-240 0 -377 113.5t-137 326.5q0 219 141.5 366.5t370.5 147.5
q2 0 37 -1t85 -3t85 -2z" />
    <glyph glyph-name="Scaron" unicode="&#x160;" horiz-adv-x="1036" 
d="M440 1427q-74 92 -207 195l33 41q123 -53 217 -125q117 82 219 125l31 -41q-102 -78 -205 -195h-88zM496 70q96 0 167.5 64.5t71.5 174.5q0 119 -61.5 183.5t-177.5 113.5q-76 31 -129.5 61.5t-108.5 77t-85 108.5t-30 140q0 106 64.5 192.5t161.5 127.5q84 35 176 35
q106 0 187 -22.5t110 -46.5l28 -24l4 -6q-39 -129 -47 -205l-20 -2q-41 96 -118 155.5t-161 59.5q-78 0 -125 -24q-39 -20 -66.5 -74.5t-27.5 -109.5q0 -59 22.5 -106.5t65.5 -78t77 -48t85 -36.5q367 -137 367 -409q0 -176 -127 -283.5t-320 -107.5q-106 0 -199.5 22.5
t-133.5 45.5l-40 24l-4 6q41 152 48 211l20 2q47 -90 143.5 -155.5t182.5 -65.5z" />
    <glyph glyph-name="scaron" unicode="&#x161;" horiz-adv-x="800" 
d="M346 1040q-78 127 -207 267l41 26q145 -106 217 -184q78 80 221 184l39 -26q-137 -154 -208 -267h-103zM102 211l31 2q37 -70 104.5 -111t143.5 -41q82 0 133 50.5t51 136.5q0 39 -12 65.5t-48 48t-58.5 30.5t-86.5 34q-55 20 -82.5 32.5t-65.5 38t-58 56.5
q-41 55 -41 143q0 127 102 197t231 70q131 0 259 -70l4 -6l-41 -148l-29 -2q-25 57 -77 101.5t-126 44.5q-70 0 -120 -40t-50 -106q0 -39 16.5 -67.5t50.5 -50t55.5 -30.5t62.5 -24q68 -23 109.5 -42t86.5 -52t65.5 -80t20.5 -112q0 -51 -15.5 -98.5t-52 -95.5t-109.5 -76.5
t-173 -28.5q-164 0 -315 57z" />
    <glyph glyph-name="Ydieresis" unicode="&#x178;" horiz-adv-x="1191" 
d="M358 1536q0 41 29 69.5t68 28.5t67.5 -28.5t28.5 -69.5t-27.5 -68.5t-68.5 -27.5t-69 27.5t-28 68.5zM705 1536q0 41 28.5 69.5t67.5 28.5t67.5 -28.5t28.5 -69.5t-28.5 -68.5t-67.5 -27.5t-67.5 27.5t-28.5 68.5zM682 584q4 -475 14 -590q-37 6 -102.5 6t-101.5 -6
q14 158 14 569q-61 104 -237.5 390t-235.5 374q51 -6 117 -6q63 0 116 6q49 -96 359 -631q229 360 358 631q37 -6 86 -6q45 0 86 6q-63 -98 -161.5 -246.5t-140.5 -213t-91 -144.5t-80 -139z" />
    <glyph glyph-name="zacute" unicode="&#x17a;" horiz-adv-x="911" 
d="M518 1380q12 4 29 4q63 0 112 -47l7 -22l-236 -223q-39 -39 -61 -39q-10 0 -19.5 8t-9.5 18q0 20 23 58zM299 111q119 0 256 6t215 11l78 5l4 -6q-4 -33 -4 -68q0 -2 4 -59l-4 -6q-49 6 -123 6h-496l-178 -6l-8 10l49 66l516 761q-113 -2 -237.5 -7t-193.5 -10l-68 -5
l-7 6q6 49 7 68q0 10 -3.5 28.5t-3.5 30.5l7 6q49 -6 122 -6h447q29 0 69.5 4t72.5 7t36 3q12 0 12 -14q-8 -10 -67 -92z" />
    <glyph glyph-name="Zcaron" unicode="&#x17d;" horiz-adv-x="1273" 
d="M573 1427q-74 92 -206 195l32 41q123 -53 217 -125q117 82 220 125l30 -41q-102 -78 -204 -195h-89zM383 111q119 0 313.5 10t329.5 21l135 12l4 -7q-4 -33 -4 -67q0 -23 4 -80l-4 -6q-49 6 -145 6h-744l-178 -6l-6 8q12 16 30.5 44t22.5 32l756 1108q16 25 -6 24
q-113 0 -225.5 -7t-257 -18t-244.5 -18l-4 7q4 33 4 67q0 23 -4 80l4 6q49 -6 125 -6h622q166 0 258 12q12 0 13 -12q0 -25 -62 -111l-727 -1063q-10 -13 -10 -36z" />
    <glyph glyph-name="zcaron" unicode="&#x17e;" horiz-adv-x="911" 
d="M432 1051q-78 127 -207 266l41 26q145 -106 217 -184q78 80 222 184l38 -26q-137 -154 -208 -266h-103zM299 111q119 0 256 6t215 11l78 5l4 -6q-4 -33 -4 -68q0 -2 4 -59l-4 -6q-49 6 -123 6h-496l-178 -6l-8 10l49 66l516 761q-113 -2 -237.5 -7t-193.5 -10l-68 -5
l-7 6q6 49 7 68q0 10 -3.5 28.5t-3.5 30.5l7 6q49 -6 122 -6h447q29 0 69.5 4t72.5 7t36 3q12 0 12 -14q-8 -10 -67 -92z" />
    <glyph glyph-name="florin" unicode="&#x192;" horiz-adv-x="921" 
d="M668 1430q111 0 164 -43.5t53 -96.5q0 -33 -17.5 -54.5t-48.5 -21.5q-70 0 -80 52q-18 104 -73 104q-88 0 -125 -262l-29 -227h215l-10 -80h-217l-4 -35q-77 -681 -116 -864q-65 -306 -185 -362q-34 -15 -74 -15q-76 0 -114 39t-38 76q0 25 18.5 46t45.5 21q47 0 67 -43
q4 -8 6.5 -20.5t4.5 -20.5t10 -15t22 -7q49 0 81 61.5t48.5 176t24.5 226t16.5 265t16.5 239.5l24 232h-170l13 80h73q98 0 113 108q27 215 108 328t177 113z" />
    <glyph glyph-name="uni0197" unicode="&#x197;" horiz-adv-x="602" 
d="M561 754v-70h-172v-274q0 -264 21 -410l-4 -6q-37 6 -105 6t-104 -6l-4 6q20 139 20 410v274h-174v70h174v157q0 264 -20 410l4 6q37 -6 104.5 -6t104.5 6l4 -6q-20 -135 -21 -410v-157h172z" />
    <glyph glyph-name="circumflex" unicode="&#x2c6;" horiz-adv-x="714" 
d="M416 1368q68 -109 207 -264l-43 -29q-145 106 -218 185q-90 -92 -219 -185l-41 29q147 164 211 264h103z" />
    <glyph glyph-name="ring" unicode="&#x2da;" horiz-adv-x="739" 
d="M371 1489q-47 0 -75 -34t-28 -81q0 -45 29 -79.5t74 -34.5t73.5 34.5t28.5 79.5q0 49 -28.5 82t-73.5 33zM193 1374.5q0 69.5 53 119.5t124.5 50t125 -49t53.5 -121q0 -70 -52.5 -120t-125.5 -50q-72 0 -125 50.5t-53 120z" />
    <glyph glyph-name="ogonek" unicode="&#x2db;" horiz-adv-x="684" 
d="M545 -297q-94 -115 -203 -115q-76 0 -119 42t-43 114q0 170 269 348l43 -33q-94 -94 -135.5 -155.5t-41.5 -136.5q0 -35 23.5 -62t62.5 -27q51 0 109 62l6 -2z" />
    <glyph glyph-name="tilde" unicode="&#x2dc;" horiz-adv-x="598" 
d="M428 1266q35 0 58.5 22.5t43.5 83.5l50 -12q-37 -184 -179 -184q-51 0 -131 53q-74 45 -110 45q-39 0 -61.5 -23.5t-39.5 -74.5l-49 10q23 92 61 137t103.5 45t147.5 -57q59 -45 106 -45z" />
    <glyph glyph-name="uni0305" unicode="&#x305;" horiz-adv-x="0" 
d="M-80 1036h-614q-27 0 -27 31q0 18 14.5 38.5t30.5 20.5h617q27 0 26 -28q0 -20 -14.5 -41t-32.5 -21z" />
    <glyph glyph-name="uni0306" unicode="&#x306;" horiz-adv-x="0" 
d="M-551 1384q16 -82 77.5 -133t143.5 -51t144.5 49t76.5 135l56 -24q-18 -127 -99 -202t-178 -75q-109 0 -182.5 73t-93.5 204z" />
    <glyph glyph-name="uni0307" unicode="&#x307;" horiz-adv-x="0" 
d="M-473 1178q0 41 31.5 72.5t72.5 31.5t73 -31.5t32 -72.5t-32 -73t-73 -32t-72.5 32t-31.5 73z" />
    <glyph glyph-name="uni0308" unicode="&#x308;" horiz-adv-x="0" 
d="M-698 1176q0 41 28.5 69.5t67.5 28.5t67.5 -28.5t28.5 -69.5t-27.5 -69t-68.5 -28t-68.5 28t-27.5 69zM-352 1176q0 41 28.5 69.5t67.5 28.5t67.5 -28.5t28.5 -69.5t-28.5 -69t-67.5 -28t-67.5 28t-28.5 69z" />
    <glyph glyph-name="hookabovecomb" unicode="&#x309;" horiz-adv-x="0" 
d="M-180 1481q0 -43 -64 -107q-53 -51 -59 -121h-57q2 74 51 150q27 39 26 74q0 68 -59 67q-45 0 -45 -22q0 -8 4 -17q8 -25 8 -35q0 -16 -15.5 -29.5t-29.5 -13.5q-27 0 -41 17.5t-14 38.5q0 37 45 76.5t104 39.5q74 0 110 -40.5t36 -77.5z" />
    <glyph glyph-name="uni030A" unicode="&#x30a;" horiz-adv-x="0" 
d="M-373 1452q-47 0 -74.5 -34t-27.5 -81q0 -45 28.5 -79.5t73.5 -34.5t74 34.5t29 79.5q0 49 -29 82t-74 33zM-551 1337.5q0 69.5 53.5 119.5t125 50t124.5 -49t53 -121q0 -70 -52 -120t-126 -50q-72 0 -125 50.5t-53 120z" />
    <glyph glyph-name="uni03F6" unicode="&#x3f6;" horiz-adv-x="862" 
d="M629 496q-14 133 -91 226t-206 93q-115 0 -221 -102l-35 35q102 158 305 157q195 0 305.5 -134t110.5 -322q0 -131 -42 -229.5t-109.5 -149t-134.5 -73t-132 -22.5q-172 0 -273 115l31 43q96 -68 205 -67q37 0 66.5 3t75.5 22.5t76 54t53.5 104t23.5 166.5h-356
q-12 0 -13 10v29q0 14 11.5 27.5t35.5 13.5h314z" />
    <glyph glyph-name="afii10017" unicode="&#x410;" horiz-adv-x="1288" 
d="M834 564q-44 115 -95.5 241t-111.5 264h-4l-216 -504q24 0 102 -2t112 -2q87 0 213 3zM367 468q-59 -145 -103 -265t-67 -209q-25 6 -93 6q-47 0 -71 -6q348 764 604 1354h57q70 -166 198 -483.5t223 -549t140 -321.5q-35 6 -122 6q-68 0 -103 -6q-4 14 -9.5 32.5t-15 50
t-22.5 71t-29 87t-37.5 108.5t-45.5 125q-67 2 -127 2.5t-113 0.5q-117 0 -264 -3z" />
    <glyph glyph-name="endash" unicode="&#x2013;" horiz-adv-x="1093" 
d="M121 487q-29 0 -29 35q0 18 17.5 42t35.5 24h828q29 0 28 -35q0 -20 -17 -43t-36 -23h-827z" />
    <glyph glyph-name="emdash" unicode="&#x2014;" horiz-adv-x="1519" 
d="M59 588h1401v-101h-1401v101z" />
    <glyph glyph-name="quoteleft" unicode="&#x2018;" horiz-adv-x="548" 
d="M399 1143v-8q-27 -76 -110 -111h-8q-131 47 -131 215q0 59 15 104.5t52 81t62.5 52t82.5 51.5q27 -23 27 -43q-160 -109 -160 -193q0 -53 60 -53q51 -12 74.5 -29.5t35.5 -66.5z" />
    <glyph glyph-name="quoteright" unicode="&#x2019;" horiz-adv-x="548" 
d="M150 1325v8q27 76 110 111h8q131 -47 131 -215q0 -59 -15 -104.5t-52 -81t-62.5 -52t-83.5 -51.5q-27 23 -26 43q160 109 159 193q0 53 -59 53q-51 12 -74.5 29.5t-35.5 66.5z" />
    <glyph glyph-name="quotesinglbase" unicode="&#x201a;" horiz-adv-x="548" 
d="M150 90v8q27 76 110 111h8q131 -47 131 -215q0 -59 -15 -104.5t-52 -81t-62.5 -52t-83.5 -51.5q-27 23 -26 43q160 109 159 193q0 53 -59 53q-51 12 -74.5 29.5t-35.5 66.5z" />
    <glyph glyph-name="quotedblleft" unicode="&#x201c;" horiz-adv-x="788" 
d="M690 1145v-8q-27 -76 -110 -111h-9q-131 47 -131 215q0 59 15.5 104.5t52.5 81t62.5 52t82.5 51.5q27 -23 27 -43q-160 -109 -160 -193q0 -53 60 -53q51 -12 74.5 -29.5t35.5 -66.5zM348 1145v-8q-27 -76 -110 -111h-9q-131 47 -131 215q0 59 15.5 104.5t52.5 81t62.5 52
t82.5 51.5q27 -23 27 -43q-160 -109 -160 -193q0 -53 60 -53q51 -12 74.5 -29.5t35.5 -66.5z" />
    <glyph glyph-name="quotedblright" unicode="&#x201d;" horiz-adv-x="788" 
d="M100 1325v8q27 76 111 111h8q131 -47 131 -215q0 -59 -15.5 -104.5t-52 -81t-62 -52t-83.5 -51.5q-27 23 -26 43q160 109 159 193q0 53 -59 53q-51 12 -75 29.5t-36 66.5zM442 1325v8q27 76 111 111h8q131 -47 131 -215q0 -59 -15 -104.5t-52 -81t-62.5 -52t-83.5 -51.5
q-27 23 -26 43q160 109 159 193q0 53 -59 53q-51 12 -75 29.5t-36 66.5z" />
    <glyph glyph-name="quotedblbase" unicode="&#x201e;" horiz-adv-x="788" 
d="M100 88v8q27 76 111 111h8q131 -47 131 -215q0 -59 -15.5 -104.5t-52 -81t-62 -52t-83.5 -51.5q-27 23 -26 43q160 109 159 193q0 53 -59 53q-51 12 -75 29.5t-36 66.5zM442 88v8q27 76 111 111h8q131 -47 131 -215q0 -59 -15 -104.5t-52 -81t-62.5 -52t-83.5 -51.5
q-27 23 -26 43q160 109 159 193q0 53 -59 53q-51 12 -75 29.5t-36 66.5z" />
    <glyph glyph-name="dagger" unicode="&#x2020;" horiz-adv-x="1204" 
d="M633 1427q37 0 63.5 -36.5t26.5 -85.5q0 -231 -74 -383q133 84 338 84q45 0 78 -31t33 -74t-32 -71.5t-79 -28.5q-205 0 -338 80q0 -258 96 -379q-96 -285 -96 -926h-35q0 670 -94 926q94 102 94 379q-126 -80 -338 -80q-47 0 -77.5 28.5t-30.5 71.5t31.5 74t76.5 31
q201 0 338 -84q-74 154 -73 383q0 49 26.5 85.5t65.5 36.5z" />
    <glyph glyph-name="daggerdbl" unicode="&#x2021;" horiz-adv-x="1204" 
d="M1098 901q0 -43 -32 -71.5t-79 -28.5q-205 0 -338 80q0 -258 96 -379q-96 -125 -96 -379q138 80 338 80q45 0 78 -28t33 -73q0 -43 -33 -72.5t-78 -29.5q-201 0 -338 82q74 -158 74 -383q0 -47 -25.5 -85t-64.5 -38q-37 0 -64.5 36t-27.5 87q0 227 73 383
q-131 -82 -338 -82q-43 0 -75.5 29.5t-32.5 72.5t34 72t74 29q207 0 338 -80q0 266 -94 379q94 102 94 379q-126 -80 -338 -80q-47 0 -77.5 28.5t-30.5 71.5t31.5 74t76.5 31q201 0 338 -84q-74 154 -73 383q0 49 26.5 85.5t65.5 36.5q37 0 63.5 -36.5t26.5 -85.5
q0 -231 -74 -383q133 84 338 84q47 0 79 -31t32 -74z" />
    <glyph glyph-name="bullet" unicode="&#x2022;" horiz-adv-x="718" 
d="M127 471q0 96 68.5 165t165 69t165 -69t68.5 -165t-68.5 -164.5t-165 -68.5t-165 68.5t-68.5 164.5z" />
    <glyph glyph-name="perthousand" unicode="&#x2030;" horiz-adv-x="1865" 
d="M1786 336q0 -119 -73 -240t-189 -121q-82 0 -133.5 62.5t-51.5 159.5q0 123 79 225t192 102q72 0 124 -43t52 -145zM1534 35q82 0 136 102.5t54 196.5q0 66 -28.5 96.5t-63.5 30.5q-68 0 -128 -95.5t-60 -195.5q0 -61 24.5 -98t65.5 -37zM946 182q0 -78 30 -111.5
t68 -33.5q84 0 141.5 108.5t57.5 212.5q0 76 -31.5 105t-66.5 29q-76 0 -137.5 -104t-61.5 -206zM831 215q0 127 86.5 235.5t202.5 108.5q80 0 134.5 -45t54.5 -154q0 -131 -77 -259t-202 -128q-94 0 -146.5 73t-52.5 169zM797 1141q90 0 186 27.5t141 88.5l70 -34
l-897 -1250l-74 33l785 1094q-104 -41 -234 -41q-98 0 -174 45q6 -23 6 -53q0 -125 -77.5 -256t-202.5 -131q-94 0 -145.5 72.5t-51.5 164.5q0 129 86 238.5t201 109.5q43 0 86 -17.5t61 -37.5q115 -53 234 -53zM242 870q0 -78 30.5 -110.5t67.5 -32.5q84 0 141.5 106.5
t57.5 215.5q0 74 -30 103.5t-69 29.5q-76 0 -137 -105t-61 -207z" />
    <glyph glyph-name="guilsinglleft" unicode="&#x2039;" horiz-adv-x="743" 
d="M319 590q121 -137 261 -348q-8 -35 -50 -39q-209 225 -378 375v24q170 150 378 375q41 -4 50 -39q-140 -211 -261 -348z" />
    <glyph glyph-name="guilsinglright" unicode="&#x203a;" horiz-adv-x="743" 
d="M410 586q-121 137 -260 348q8 35 49 39q209 -225 379 -375v-25q-170 -150 -379 -374q-41 4 -49 39q139 211 260 348z" />
    <glyph glyph-name="Euro" unicode="&#x20ac;" horiz-adv-x="952" 
d="M31 674l2 22l43 54h49q32 232 159 365.5t318 133.5q96 0 172 -22.5t104 -45.5l27 -24l4 -8q-6 -27 -16 -59.5t-12 -45t-6.5 -39t-6.5 -65.5l-22 -2q-57 135 -106.5 179t-168.5 44q-94 0 -171 -102.5t-96 -308.5h484l-38 -76h-450q-1 -21 -1 -43q0 -36 1 -68h413l-39 -76
h-368q19 -183 89 -297t195 -114q39 0 65.5 2t52 17.5t37 22.5t34 43t30.5 53t39 77l22 -2q6 -63 41 -195l-4 -6q-12 -12 -36.5 -30.5t-102.5 -49.5t-160 -31q-227 0 -346.5 137.5t-141.5 372.5h-120v21l43 55h72q-1 20 0 39q0 35 2 72h-86z" />
    <glyph glyph-name="trademark" unicode="&#x2122;" horiz-adv-x="1628" 
d="M424 698q0 -49 61 -49h29q10 0 10 -10v-27l-2 -2q-129 2 -170 2l-168 -2l-2 2v27q0 10 11 10h28q63 0 64 49v543q0 41 -29 41h-104q-33 0 -48.5 -18.5t-31.5 -85.5l-45 12l39 184l49 -16q0 -2 -2 -8.5t-3 -10.5l-1 -4h477l-1 4q-1 4 -3 10.5t-2 8.5l51 16l39 -186
l-47 -10q-18 68 -33 86t-49 18h-88q-16 0 -22.5 -8t-6.5 -35v-541zM1380 705l-34 403l-203 -498q-6 -20 -33 -20q-23 0 -35 20q-123 293 -205 488q-16 -260 -28 -396v-12q0 -47 14 -47h31q35 0 35 -14v-17l-7 -12q-80 4 -124 4l-97 -4l-10 12v17q0 14 37 14h29q14 0 22 62
q6 84 20.5 269t20.5 275v6v5q0 35 -18 34h-33q-35 2 -35 13v16l10 12h183l229 -542q20 49 99 244.5t120 297.5h168l6 -12v-16q0 -12 -35 -13h-30q-18 0 -19 -32v-13l47 -544q8 -61 25 -62h29q39 0 38 -14v-17l-12 -12q-90 4 -133 4l-135 -4l-12 12v17q0 14 34 14h29
q12 0 12 47v15z" />
  </font>
</defs>
</svg>
